<svg xmlns="http://www.w3.org/2000/svg" xmlns:xlink="http://www.w3.org/1999/xlink" width="500" zoomAndPan="magnify" viewBox="0 0 375 374.999991" height="500" preserveAspectRatio="xMidYMid meet" version="1.0"><defs><g/><clipPath id="a04c2d6d00"><path d="M 85.535156 85.535156 L 375 85.535156 L 375 375 L 85.535156 375 Z M 85.535156 85.535156 " clip-rule="nonzero"/></clipPath><clipPath id="d3e131be40"><path d="M 230.265625 0 L 375 0 L 375 85.535156 L 230.265625 85.535156 Z M 230.265625 0 " clip-rule="nonzero"/></clipPath><clipPath id="f9aab565d9"><path d="M 230.273438 0 L 374.988281 0 L 374.988281 85.5 L 230.273438 85.5 Z M 230.273438 0 " clip-rule="nonzero"/></clipPath><clipPath id="28959a0c2b"><path d="M 85.535156 0 L 230.265625 0 L 230.265625 85.535156 L 85.535156 85.535156 Z M 85.535156 0 " clip-rule="nonzero"/></clipPath><clipPath id="29c8a25893"><path d="M 85.539062 0 L 230.253906 0 L 230.253906 85.5 L 85.539062 85.5 Z M 85.539062 0 " clip-rule="nonzero"/></clipPath><clipPath id="c0e0baf55c"><path d="M 0 85.523438 L 85.535156 85.523438 L 85.535156 230.257812 L 0 230.257812 Z M 0 85.523438 " clip-rule="nonzero"/></clipPath><clipPath id="8c26a6ec27"><path d="M 0 85.535156 L 85.5 85.535156 L 85.5 230.253906 L 0 230.253906 Z M 0 85.535156 " clip-rule="nonzero"/></clipPath><clipPath id="61fb0c07e1"><path d="M 0 230.257812 L 85.535156 230.257812 L 85.535156 374.992188 L 0 374.992188 Z M 0 230.257812 " clip-rule="nonzero"/></clipPath><clipPath id="75bacc17a9"><path d="M 0 230.269531 L 85.5 230.269531 L 85.5 374.988281 L 0 374.988281 Z M 0 230.269531 " clip-rule="nonzero"/></clipPath><clipPath id="42b81d1a49"><path d="M 85.535156 85.535156 L 230.265625 85.535156 L 230.265625 230.265625 L 85.535156 230.265625 Z M 85.535156 85.535156 " clip-rule="nonzero"/></clipPath><clipPath id="3c56e77003"><path d="M 85.535156 85.535156 L 230.261719 85.535156 L 230.261719 230.261719 L 85.535156 230.261719 Z M 85.535156 85.535156 " clip-rule="nonzero"/></clipPath><clipPath id="45d2c1aa69"><path d="M 230.265625 85.535156 L 375 85.535156 L 375 230.265625 L 230.265625 230.265625 Z M 230.265625 85.535156 " clip-rule="nonzero"/></clipPath><clipPath id="fb3c9440a1"><path d="M 230.265625 85.535156 L 374.992188 85.535156 L 374.992188 230.261719 L 230.265625 230.261719 Z M 230.265625 85.535156 " clip-rule="nonzero"/></clipPath><clipPath id="3a67c7a8f1"><path d="M 85.535156 230.265625 L 230.265625 230.265625 L 230.265625 375 L 85.535156 375 Z M 85.535156 230.265625 " clip-rule="nonzero"/></clipPath><clipPath id="ed9199f571"><path d="M 85.535156 230.265625 L 230.261719 230.265625 L 230.261719 374.992188 L 85.535156 374.992188 Z M 85.535156 230.265625 " clip-rule="nonzero"/></clipPath><clipPath id="53a5d681b1"><path d="M 230.265625 230.265625 L 375 230.265625 L 375 375 L 230.265625 375 Z M 230.265625 230.265625 " clip-rule="nonzero"/></clipPath><clipPath id="2d01162df0"><path d="M 230.265625 230.265625 L 374.992188 230.265625 L 374.992188 374.992188 L 230.265625 374.992188 Z M 230.265625 230.265625 " clip-rule="nonzero"/></clipPath></defs><rect x="-37.5" width="450" fill="#ffffff" y="-37.499999" height="449.999989" fill-opacity="1"/><rect x="-37.5" width="450" fill="#ffffff" y="-37.499999" height="449.999989" fill-opacity="1"/><g clip-path="url(#a04c2d6d00)"><path stroke-linecap="butt" transform="matrix(0.75, 0, 0, 0.75, 85.533361, 85.533357)" fill-opacity="1" fill="#ffffff" fill-rule="nonzero" stroke-linejoin="miter" d="M 0.00239329 0.00239929 L 385.955544 0.00239929 L 385.955544 385.95555 L 0.00239329 385.95555 Z M 0.00239329 0.00239929 " stroke="#000000" stroke-width="1" stroke-opacity="1" stroke-miterlimit="4"/></g><g clip-path="url(#d3e131be40)"><path fill="#ffffff" d="M 230.265625 0 L 375 0 L 375 85.535156 L 230.265625 85.535156 Z M 230.265625 0 " fill-opacity="1" fill-rule="nonzero"/></g><g clip-path="url(#f9aab565d9)"><path stroke-linecap="butt" transform="matrix(0.75, 0, 0, 0.75, 230.271683, 0)" fill="none" stroke-linejoin="miter" d="M 0.00233936 0 L 192.955477 0 L 192.955477 114.031257 L 0.00233936 114.031257 Z M 0.00233936 0 " stroke="#000000" stroke-width="1" stroke-opacity="1" stroke-miterlimit="4"/></g><g fill="#000000" fill-opacity="1"><g transform="translate(236.876049, 51.749997)"><g><path d="M 10.203125 0.359375 C 7.390625 0.359375 5.1875 -0.457031 3.59375 -2.09375 C 2 -3.726562 1.203125 -5.9375 1.203125 -8.71875 C 1.203125 -11.519531 2 -13.734375 3.59375 -15.359375 C 5.1875 -16.992188 7.390625 -17.8125 10.203125 -17.8125 C 12.984375 -17.8125 15.175781 -17 16.78125 -15.375 C 18.394531 -13.75 19.203125 -11.53125 19.203125 -8.71875 C 19.203125 -5.9375 18.40625 -3.726562 16.8125 -2.09375 C 15.21875 -0.457031 13.015625 0.359375 10.203125 0.359375 Z M 14.515625 -8.734375 C 14.515625 -10.597656 14.117188 -12.023438 13.328125 -13.015625 C 12.546875 -14.015625 11.503906 -14.515625 10.203125 -14.515625 C 8.878906 -14.515625 7.828125 -14.007812 7.046875 -13 C 6.273438 -12 5.890625 -10.570312 5.890625 -8.71875 C 5.890625 -6.863281 6.28125 -5.4375 7.0625 -4.4375 C 7.84375 -3.4375 8.890625 -2.9375 10.203125 -2.9375 C 11.484375 -2.9375 12.519531 -3.425781 13.3125 -4.40625 C 14.113281 -5.394531 14.515625 -6.835938 14.515625 -8.734375 Z M 14.515625 -8.734375 "/></g></g><g transform="translate(257.278391, 51.749997)"><g><path d="M 6.21875 -0.65625 L 6.21875 4.828125 L 2 4.828125 L 2 -13.15625 L 6.21875 -13.15625 L 6.21875 -11.796875 C 7.65625 -12.953125 9.09375 -13.53125 10.53125 -13.53125 C 12.1875 -13.53125 13.46875 -12.921875 14.375 -11.703125 C 15.28125 -10.484375 15.734375 -8.835938 15.734375 -6.765625 C 15.734375 -4.710938 15.160156 -3.023438 14.015625 -1.703125 C 12.878906 -0.390625 11.453125 0.265625 9.734375 0.265625 C 8.515625 0.265625 7.34375 -0.0390625 6.21875 -0.65625 Z M 6.21875 -9.640625 L 6.21875 -3.015625 C 6.625 -2.835938 7.238281 -2.75 8.0625 -2.75 C 10.269531 -2.75 11.375 -4.0625 11.375 -6.6875 C 11.375 -7.96875 11.15625 -8.894531 10.71875 -9.46875 C 10.28125 -10.050781 9.59375 -10.34375 8.65625 -10.34375 C 7.820312 -10.34375 7.007812 -10.109375 6.21875 -9.640625 Z M 6.21875 -9.640625 "/></g></g><g transform="translate(274.05964, 51.749997)"><g><path d="M 6.21875 -0.65625 L 6.21875 4.828125 L 2 4.828125 L 2 -13.15625 L 6.21875 -13.15625 L 6.21875 -11.796875 C 7.65625 -12.953125 9.09375 -13.53125 10.53125 -13.53125 C 12.1875 -13.53125 13.46875 -12.921875 14.375 -11.703125 C 15.28125 -10.484375 15.734375 -8.835938 15.734375 -6.765625 C 15.734375 -4.710938 15.160156 -3.023438 14.015625 -1.703125 C 12.878906 -0.390625 11.453125 0.265625 9.734375 0.265625 C 8.515625 0.265625 7.34375 -0.0390625 6.21875 -0.65625 Z M 6.21875 -9.640625 L 6.21875 -3.015625 C 6.625 -2.835938 7.238281 -2.75 8.0625 -2.75 C 10.269531 -2.75 11.375 -4.0625 11.375 -6.6875 C 11.375 -7.96875 11.15625 -8.894531 10.71875 -9.46875 C 10.28125 -10.050781 9.59375 -10.34375 8.65625 -10.34375 C 7.820312 -10.34375 7.007812 -10.109375 6.21875 -9.640625 Z M 6.21875 -9.640625 "/></g></g><g transform="translate(290.840889, 51.749997)"><g><path d="M 8.234375 0.40625 C 5.941406 0.40625 4.164062 -0.210938 2.90625 -1.453125 C 1.65625 -2.703125 1.03125 -4.410156 1.03125 -6.578125 C 1.03125 -8.765625 1.664062 -10.476562 2.9375 -11.71875 C 4.207031 -12.957031 5.972656 -13.578125 8.234375 -13.578125 C 10.546875 -13.578125 12.328125 -12.945312 13.578125 -11.6875 C 14.828125 -10.425781 15.453125 -8.722656 15.453125 -6.578125 C 15.453125 -4.421875 14.820312 -2.71875 13.5625 -1.46875 C 12.300781 -0.21875 10.523438 0.40625 8.234375 0.40625 Z M 11.078125 -6.546875 C 11.078125 -9.265625 10.128906 -10.625 8.234375 -10.625 C 6.347656 -10.625 5.40625 -9.265625 5.40625 -6.546875 C 5.40625 -3.867188 6.363281 -2.53125 8.28125 -2.53125 C 10.144531 -2.53125 11.078125 -3.867188 11.078125 -6.546875 Z M 11.078125 -6.546875 "/></g></g><g transform="translate(307.317451, 51.749997)"><g><path d="M 15.21875 0 L 10.96875 0 L 10.96875 -6.53125 C 10.96875 -7.925781 10.832031 -8.867188 10.5625 -9.359375 C 10.289062 -9.859375 9.65625 -10.109375 8.65625 -10.109375 C 7.914062 -10.109375 7.101562 -9.847656 6.21875 -9.328125 L 6.21875 0 L 2 0 L 2 -13.15625 L 6.21875 -13.15625 L 6.21875 -11.703125 C 7.75 -12.921875 9.234375 -13.53125 10.671875 -13.53125 C 12.140625 -13.53125 13.265625 -13.097656 14.046875 -12.234375 C 14.828125 -11.378906 15.21875 -10.15625 15.21875 -8.5625 Z M 15.21875 0 "/></g></g><g transform="translate(324.415106, 51.749997)"><g><path d="M 14.953125 -5.796875 L 5.296875 -5.796875 C 5.441406 -3.671875 6.898438 -2.609375 9.671875 -2.609375 C 11.296875 -2.609375 12.816406 -3.113281 14.234375 -4.125 L 14.703125 -4.125 L 14.703125 -0.734375 C 12.953125 -0.00390625 11.125 0.359375 9.21875 0.359375 C 6.59375 0.359375 4.570312 -0.226562 3.15625 -1.40625 C 1.738281 -2.59375 1.03125 -4.289062 1.03125 -6.5 C 1.03125 -8.675781 1.695312 -10.398438 3.03125 -11.671875 C 4.363281 -12.941406 6.191406 -13.578125 8.515625 -13.578125 C 10.648438 -13.578125 12.253906 -13.035156 13.328125 -11.953125 C 14.410156 -10.867188 14.953125 -9.3125 14.953125 -7.28125 Z M 10.765625 -8.28125 C 10.722656 -10.050781 9.859375 -10.9375 8.171875 -10.9375 C 6.378906 -10.9375 5.414062 -10.050781 5.28125 -8.28125 Z M 10.765625 -8.28125 "/></g></g><g transform="translate(340.352605, 51.749997)"><g><path d="M 15.21875 0 L 10.96875 0 L 10.96875 -6.53125 C 10.96875 -7.925781 10.832031 -8.867188 10.5625 -9.359375 C 10.289062 -9.859375 9.65625 -10.109375 8.65625 -10.109375 C 7.914062 -10.109375 7.101562 -9.847656 6.21875 -9.328125 L 6.21875 0 L 2 0 L 2 -13.15625 L 6.21875 -13.15625 L 6.21875 -11.703125 C 7.75 -12.921875 9.234375 -13.53125 10.671875 -13.53125 C 12.140625 -13.53125 13.265625 -13.097656 14.046875 -12.234375 C 14.828125 -11.378906 15.21875 -10.15625 15.21875 -8.5625 Z M 15.21875 0 "/></g></g><g transform="translate(357.45026, 51.749997)"><g><path d="M 10.40625 -0.125 C 9.5 0.132812 8.398438 0.265625 7.109375 0.265625 C 5.460938 0.265625 4.238281 -0.0625 3.4375 -0.71875 C 2.632812 -1.382812 2.234375 -2.53125 2.234375 -4.15625 L 2.234375 -10.296875 L 0.5 -10.296875 L 0.5 -13.15625 L 2.234375 -13.15625 L 2.234375 -16.921875 L 6.453125 -16.921875 L 6.453125 -13.15625 L 10.40625 -13.15625 L 10.40625 -10.296875 L 6.453125 -10.296875 L 6.453125 -5.640625 C 6.453125 -4.679688 6.488281 -4.046875 6.5625 -3.734375 C 6.644531 -3.421875 6.828125 -3.15625 7.109375 -2.9375 C 7.390625 -2.71875 7.835938 -2.609375 8.453125 -2.609375 C 8.984375 -2.609375 9.519531 -2.742188 10.0625 -3.015625 L 10.40625 -3.015625 Z M 10.40625 -0.125 "/></g></g></g><g clip-path="url(#28959a0c2b)"><path fill="#ffffff" d="M 85.535156 0 L 230.265625 0 L 230.265625 85.535156 L 85.535156 85.535156 Z M 85.535156 0 " fill-opacity="1" fill-rule="nonzero"/></g><g clip-path="url(#29c8a25893)"><path stroke-linecap="butt" transform="matrix(0.75, 0, 0, 0.75, 85.53837, 0)" fill="none" stroke-linejoin="miter" d="M 0.000923223 0 L 192.954061 0 L 192.954061 114.031257 L 0.000923223 114.031257 Z M 0.000923223 0 " stroke="#000000" stroke-width="1" stroke-opacity="1" stroke-miterlimit="4"/></g><g fill="#000000" fill-opacity="1"><g transform="translate(132.279452, 51.749997)"><g><path d="M 17.578125 -17.453125 L 11.140625 -6.75 L 11.140625 0 L 6.640625 0 L 6.640625 -6.546875 L 0.109375 -17.453125 L 5.21875 -17.453125 L 8.984375 -10.703125 L 12.640625 -17.453125 Z M 17.578125 -17.453125 "/></g></g></g><g fill="#000000" fill-opacity="1"><g transform="translate(149.954416, 51.749997)"><g><path d="M 8.234375 0.40625 C 5.941406 0.40625 4.164062 -0.210938 2.90625 -1.453125 C 1.65625 -2.703125 1.03125 -4.410156 1.03125 -6.578125 C 1.03125 -8.765625 1.664062 -10.476562 2.9375 -11.71875 C 4.207031 -12.957031 5.972656 -13.578125 8.234375 -13.578125 C 10.546875 -13.578125 12.328125 -12.945312 13.578125 -11.6875 C 14.828125 -10.425781 15.453125 -8.722656 15.453125 -6.578125 C 15.453125 -4.421875 14.820312 -2.71875 13.5625 -1.46875 C 12.300781 -0.21875 10.523438 0.40625 8.234375 0.40625 Z M 11.078125 -6.546875 C 11.078125 -9.265625 10.128906 -10.625 8.234375 -10.625 C 6.347656 -10.625 5.40625 -9.265625 5.40625 -6.546875 C 5.40625 -3.867188 6.363281 -2.53125 8.28125 -2.53125 C 10.144531 -2.53125 11.078125 -3.867188 11.078125 -6.546875 Z M 11.078125 -6.546875 "/></g></g></g><g fill="#000000" fill-opacity="1"><g transform="translate(166.422932, 51.749997)"><g><path d="M 15.109375 0 L 10.890625 0 L 10.890625 -1.453125 C 9.898438 -0.722656 9.109375 -0.238281 8.515625 0 C 7.921875 0.238281 7.222656 0.359375 6.421875 0.359375 C 4.972656 0.359375 3.851562 -0.0546875 3.0625 -0.890625 C 2.28125 -1.722656 1.890625 -2.957031 1.890625 -4.59375 L 1.890625 -13.15625 L 6.125 -13.15625 L 6.125 -6.640625 C 6.125 -4.972656 6.296875 -3.957031 6.640625 -3.59375 C 6.992188 -3.226562 7.585938 -3.046875 8.421875 -3.046875 C 9.234375 -3.046875 10.054688 -3.304688 10.890625 -3.828125 L 10.890625 -13.15625 L 15.109375 -13.15625 Z M 15.109375 0 "/></g></g></g><g clip-path="url(#c0e0baf55c)"><path fill="#ffffff" d="M 0 230.257812 L 0 85.523438 L 85.535156 85.523438 L 85.535156 230.257812 Z M 0 230.257812 " fill-opacity="1" fill-rule="nonzero"/></g><g clip-path="url(#8c26a6ec27)"><path stroke-linecap="butt" transform="matrix(0, -0.75, 0.75, 0, 0.00158665, 230.253309)" fill="none" stroke-linejoin="miter" d="M -0.000796493 -0.00211553 L 192.95755 -0.00211553 L 192.95755 114.029142 L -0.000796493 114.029142 Z M -0.000796493 -0.00211553 " stroke="#000000" stroke-width="1" stroke-opacity="1" stroke-miterlimit="4"/></g><g fill="#000000" fill-opacity="1"><g transform="translate(37.501584, 205.684103)"><g><path d="M -9.390625 -10.59375 L -9.390625 -6.953125 L 0 -6.953125 L 0 -3.953125 L -9.390625 -3.953125 L -9.390625 -0.328125 L -11.640625 -0.328125 L -11.640625 -10.59375 Z M -9.390625 -10.59375 "/></g></g></g><g fill="#000000" fill-opacity="1"><g transform="translate(37.501584, 194.780516)"><g><path d="M -10.03125 -4.21875 L -10.03125 -1.25 L -12.15625 -1.25 L -12.15625 -4.21875 Z M 0 -4.140625 L 0 -1.328125 L -8.78125 -1.328125 L -8.78125 -4.140625 Z M 0 -4.140625 "/></g></g></g><g fill="#000000" fill-opacity="1"><g transform="translate(37.501584, 189.313102)"><g><path d="M -6.21875 -9.90625 L 0 -9.90625 L 0 -7.078125 L -4.390625 -7.078125 C -5.359375 -7.078125 -5.992188 -6.992188 -6.296875 -6.828125 C -6.597656 -6.660156 -6.75 -6.269531 -6.75 -5.65625 C -6.75 -5.226562 -6.570312 -4.722656 -6.21875 -4.140625 L 0 -4.140625 L 0 -1.328125 L -8.78125 -1.328125 L -8.78125 -4.140625 L -7.8125 -4.140625 C -8.613281 -5.160156 -9.015625 -6.113281 -9.015625 -7 C -9.015625 -8.207031 -8.507812 -9.066406 -7.5 -9.578125 C -8.507812 -10.796875 -9.015625 -11.863281 -9.015625 -12.78125 C -9.015625 -14.707031 -7.914062 -15.671875 -5.71875 -15.671875 L 0 -15.671875 L 0 -12.84375 L -4.390625 -12.84375 C -5.359375 -12.84375 -5.992188 -12.765625 -6.296875 -12.609375 C -6.597656 -12.453125 -6.75 -12.054688 -6.75 -11.421875 C -6.75 -11.015625 -6.570312 -10.507812 -6.21875 -9.90625 Z M -6.21875 -9.90625 "/></g></g></g><g fill="#000000" fill-opacity="1"><g transform="translate(37.501584, 172.387543)"><g><path d="M -3.875 -9.96875 L -3.875 -3.53125 C -2.457031 -3.625 -1.75 -4.597656 -1.75 -6.453125 C -1.75 -7.535156 -2.082031 -8.550781 -2.75 -9.5 L -2.75 -9.8125 L -0.5 -9.8125 C -0.0078125 -8.644531 0.234375 -7.421875 0.234375 -6.140625 C 0.234375 -4.390625 -0.15625 -3.039062 -0.9375 -2.09375 C -1.726562 -1.15625 -2.863281 -0.6875 -4.34375 -0.6875 C -5.789062 -0.6875 -6.9375 -1.128906 -7.78125 -2.015625 C -8.625 -2.910156 -9.046875 -4.128906 -9.046875 -5.671875 C -9.046875 -7.097656 -8.6875 -8.171875 -7.96875 -8.890625 C -7.25 -9.609375 -6.210938 -9.96875 -4.859375 -9.96875 Z M -5.515625 -7.171875 C -6.703125 -7.148438 -7.296875 -6.578125 -7.296875 -5.453125 C -7.296875 -4.253906 -6.703125 -3.613281 -5.515625 -3.53125 Z M -5.515625 -7.171875 "/></g></g></g><g fill="#000000" fill-opacity="1"><g transform="translate(37.501584, 161.765138)"><g/></g></g><g fill="#000000" fill-opacity="1"><g transform="translate(37.501584, 156.297723)"><g><path d="M -9.390625 -9.828125 L -9.390625 -4.46875 L -7.21875 -4.46875 L -7.21875 -9.4375 L -4.96875 -9.4375 L -4.96875 -4.46875 L 0 -4.46875 L 0 -1.484375 L -11.640625 -1.484375 L -11.640625 -9.828125 Z M -9.390625 -9.828125 "/></g></g></g><g fill="#000000" fill-opacity="1"><g transform="translate(37.501584, 145.894015)"><g><path d="M 0.28125 -5.5 C 0.28125 -3.96875 -0.132812 -2.78125 -0.96875 -1.9375 C -1.800781 -1.101562 -2.941406 -0.6875 -4.390625 -0.6875 C -5.847656 -0.6875 -6.988281 -1.109375 -7.8125 -1.953125 C -8.632812 -2.804688 -9.046875 -3.988281 -9.046875 -5.5 C -9.046875 -7.03125 -8.625 -8.210938 -7.78125 -9.046875 C -6.945312 -9.878906 -5.816406 -10.296875 -4.390625 -10.296875 C -2.953125 -10.296875 -1.8125 -9.875 -0.96875 -9.03125 C -0.132812 -8.195312 0.28125 -7.019531 0.28125 -5.5 Z M -4.375 -7.390625 C -6.1875 -7.390625 -7.09375 -6.757812 -7.09375 -5.5 C -7.09375 -4.238281 -6.1875 -3.609375 -4.375 -3.609375 C -2.582031 -3.609375 -1.6875 -4.242188 -1.6875 -5.515625 C -1.6875 -6.765625 -2.582031 -7.390625 -4.375 -7.390625 Z M -4.375 -7.390625 "/></g></g></g><g fill="#000000" fill-opacity="1"><g transform="translate(37.501584, 134.912322)"><g><path d="M -6.09375 -7.6875 L -6.09375 -7.4375 L -6.15625 -7.09375 C -6.195312 -6.8125 -6.21875 -6.515625 -6.21875 -6.203125 C -6.21875 -5.453125 -6.101562 -4.765625 -5.875 -4.140625 L 0 -4.140625 L 0 -1.328125 L -8.78125 -1.328125 L -8.78125 -4.140625 L -7.484375 -4.140625 C -8.367188 -5.128906 -8.8125 -6.09375 -8.8125 -7.03125 C -8.8125 -7.28125 -8.800781 -7.5 -8.78125 -7.6875 Z M -6.09375 -7.6875 "/></g></g></g><g fill="#000000" fill-opacity="1"><g transform="translate(37.501584, 126.961139)"><g/></g></g><g fill="#000000" fill-opacity="1"><g transform="translate(37.501584, 121.493725)"><g><path d="M 0 -9.84375 L 0 -2.078125 L -2.03125 -2.078125 L -2.03125 -4.53125 L -8.1875 -4.53125 L -8.1875 -2.078125 L -10.078125 -2.078125 C -10.078125 -3.054688 -10.203125 -3.753906 -10.453125 -4.171875 C -10.710938 -4.597656 -11.117188 -4.828125 -11.671875 -4.859375 L -11.671875 -7.453125 L -2.03125 -7.453125 L -2.03125 -9.84375 Z M 0 -9.84375 "/></g></g></g><g fill="#000000" fill-opacity="1"><g transform="translate(59.251583, 224.035664)"><g><path d="M -0.6875 -0.859375 L -3.484375 -0.859375 L -3.484375 -1.1875 C -2.453125 -2.488281 -1.9375 -3.921875 -1.9375 -5.484375 C -1.9375 -6.972656 -2.332031 -7.71875 -3.125 -7.71875 C -3.34375 -7.71875 -3.554688 -7.613281 -3.765625 -7.40625 C -3.984375 -7.207031 -4.179688 -6.660156 -4.359375 -5.765625 C -4.585938 -4.609375 -4.820312 -3.707031 -5.0625 -3.0625 C -5.3125 -2.414062 -5.695312 -1.894531 -6.21875 -1.5 C -6.738281 -1.113281 -7.390625 -0.921875 -8.171875 -0.921875 C -9.253906 -0.921875 -10.132812 -1.40625 -10.8125 -2.375 C -11.5 -3.351562 -11.84375 -4.601562 -11.84375 -6.125 C -11.84375 -7.613281 -11.582031 -9.019531 -11.0625 -10.34375 L -8.390625 -10.34375 L -8.390625 -10.015625 C -9.265625 -8.867188 -9.703125 -7.601562 -9.703125 -6.21875 C -9.703125 -5.53125 -9.597656 -4.988281 -9.390625 -4.59375 C -9.179688 -4.207031 -8.90625 -4.015625 -8.5625 -4.015625 C -8.257812 -4.015625 -8.019531 -4.132812 -7.84375 -4.375 C -7.675781 -4.613281 -7.488281 -5.257812 -7.28125 -6.3125 C -6.9375 -8.050781 -6.484375 -9.234375 -5.921875 -9.859375 C -5.367188 -10.484375 -4.613281 -10.796875 -3.65625 -10.796875 C -2.507812 -10.796875 -1.578125 -10.3125 -0.859375 -9.34375 C -0.140625 -8.375 0.21875 -7.054688 0.21875 -5.390625 C 0.21875 -3.816406 -0.0820312 -2.304688 -0.6875 -0.859375 Z M -0.6875 -0.859375 "/></g></g></g><g fill="#000000" fill-opacity="1"><g transform="translate(59.251583, 212.671247)"><g><path d="M -0.078125 -6.9375 C 0.0859375 -6.332031 0.171875 -5.597656 0.171875 -4.734375 C 0.171875 -3.640625 -0.046875 -2.828125 -0.484375 -2.296875 C -0.929688 -1.765625 -1.691406 -1.5 -2.765625 -1.5 L -6.875 -1.5 L -6.875 -0.34375 L -8.78125 -0.34375 L -8.78125 -1.5 L -11.28125 -1.5 L -11.28125 -4.3125 L -8.78125 -4.3125 L -8.78125 -6.9375 L -6.875 -6.9375 L -6.875 -4.3125 L -3.765625 -4.3125 C -3.117188 -4.3125 -2.691406 -4.335938 -2.484375 -4.390625 C -2.273438 -4.441406 -2.097656 -4.554688 -1.953125 -4.734375 C -1.816406 -4.921875 -1.75 -5.222656 -1.75 -5.640625 C -1.75 -5.992188 -1.835938 -6.347656 -2.015625 -6.703125 L -2.015625 -6.9375 Z M -0.078125 -6.9375 "/></g></g></g><g fill="#000000" fill-opacity="1"><g transform="translate(59.251583, 205.383959)"><g><path d="M -10.03125 -4.21875 L -10.03125 -1.25 L -12.15625 -1.25 L -12.15625 -4.21875 Z M 0 -4.140625 L 0 -1.328125 L -8.78125 -1.328125 L -8.78125 -4.140625 Z M 0 -4.140625 "/></g></g></g><g fill="#000000" fill-opacity="1"><g transform="translate(59.251583, 199.916544)"><g><path d="M -8.3125 -8.890625 L -5.921875 -8.890625 L -5.921875 -8.484375 C -6.648438 -7.679688 -7.015625 -6.832031 -7.015625 -5.9375 C -7.015625 -5.1875 -6.773438 -4.609375 -6.296875 -4.203125 C -5.816406 -3.796875 -5.171875 -3.59375 -4.359375 -3.59375 C -2.640625 -3.59375 -1.78125 -4.390625 -1.78125 -5.984375 C -1.78125 -6.941406 -2.132812 -7.773438 -2.84375 -8.484375 L -2.84375 -8.890625 L -0.453125 -8.890625 C 0.00390625 -7.921875 0.234375 -6.925781 0.234375 -5.90625 C 0.234375 -4.28125 -0.160156 -3.003906 -0.953125 -2.078125 C -1.742188 -1.148438 -2.878906 -0.6875 -4.359375 -0.6875 C -5.859375 -0.6875 -7.007812 -1.148438 -7.8125 -2.078125 C -8.613281 -3.015625 -9.015625 -4.257812 -9.015625 -5.8125 C -9.015625 -6.863281 -8.78125 -7.890625 -8.3125 -8.890625 Z M -8.3125 -8.890625 "/></g></g></g><g fill="#000000" fill-opacity="1"><g transform="translate(59.251583, 190.504775)"><g><path d="M 0 -10.640625 L 0 -7.375 L -3.828125 -4.90625 L -2.890625 -4.140625 L 0 -4.140625 L 0 -1.328125 L -12.15625 -1.328125 L -12.15625 -4.140625 L -4.90625 -4.140625 L -8.78125 -7.171875 L -8.78125 -10.421875 L -5 -7.265625 Z M 0 -10.640625 "/></g></g></g><g fill="#000000" fill-opacity="1"><g transform="translate(59.251583, 179.773021)"><g/></g></g><g fill="#000000" fill-opacity="1"><g transform="translate(59.251583, 174.305607)"><g><path d="M 0.25 -6.796875 C 0.25 -4.921875 -0.296875 -3.453125 -1.390625 -2.390625 C -2.484375 -1.335938 -3.957031 -0.8125 -5.8125 -0.8125 C -7.675781 -0.8125 -9.148438 -1.34375 -10.234375 -2.40625 C -11.328125 -3.46875 -11.875 -4.929688 -11.875 -6.796875 C -11.875 -8.648438 -11.332031 -10.113281 -10.25 -11.1875 C -9.164062 -12.257812 -7.6875 -12.796875 -5.8125 -12.796875 C -3.957031 -12.796875 -2.484375 -12.265625 -1.390625 -11.203125 C -0.296875 -10.148438 0.25 -8.679688 0.25 -6.796875 Z M -5.828125 -9.6875 C -7.066406 -9.6875 -8.019531 -9.421875 -8.6875 -8.890625 C -9.351562 -8.367188 -9.6875 -7.675781 -9.6875 -6.8125 C -9.6875 -5.925781 -9.347656 -5.222656 -8.671875 -4.703125 C -8.003906 -4.179688 -7.050781 -3.921875 -5.8125 -3.921875 C -4.582031 -3.921875 -3.628906 -4.179688 -2.953125 -4.703125 C -2.285156 -5.222656 -1.953125 -5.925781 -1.953125 -6.8125 C -1.953125 -7.65625 -2.28125 -8.34375 -2.9375 -8.875 C -3.59375 -9.414062 -4.554688 -9.6875 -5.828125 -9.6875 Z M -5.828125 -9.6875 "/></g></g></g><g fill="#000000" fill-opacity="1"><g transform="translate(59.251583, 160.70736)"><g><path d="M -10.09375 -7.015625 L -10.09375 -6.8125 L -10.203125 -6.421875 C -10.265625 -6.148438 -10.296875 -5.898438 -10.296875 -5.671875 C -10.296875 -5.128906 -10.195312 -4.757812 -10 -4.5625 C -9.8125 -4.363281 -9.425781 -4.265625 -8.84375 -4.265625 L -8.78125 -4.265625 L -8.78125 -6.4375 L -6.875 -6.4375 L -6.875 -4.359375 L 0 -4.359375 L 0 -1.546875 L -6.875 -1.546875 L -6.875 -0.34375 L -8.78125 -0.34375 L -8.78125 -1.546875 L -9.015625 -1.546875 C -11.160156 -1.546875 -12.234375 -2.691406 -12.234375 -4.984375 C -12.234375 -5.753906 -12.179688 -6.429688 -12.078125 -7.015625 Z M -10.09375 -7.015625 "/></g></g></g><g fill="#000000" fill-opacity="1"><g transform="translate(59.251583, 153.951192)"><g/></g></g><g fill="#000000" fill-opacity="1"><g transform="translate(59.251583, 148.483778)"><g><path d="M 0 -1.484375 L -11.640625 -1.484375 L -11.640625 -6 C -11.640625 -7.175781 -11.5625 -8.0625 -11.40625 -8.65625 C -11.257812 -9.25 -10.972656 -9.734375 -10.546875 -10.109375 C -10.128906 -10.484375 -9.59375 -10.671875 -8.9375 -10.671875 C -7.78125 -10.671875 -6.945312 -10.101562 -6.4375 -8.96875 L -6.375 -8.96875 C -6.019531 -10.613281 -5.082031 -11.4375 -3.5625 -11.4375 C -2.53125 -11.4375 -1.675781 -11.039062 -1 -10.25 C -0.332031 -9.457031 0 -8.226562 0 -6.5625 Z M -9.5 -4.46875 L -7.046875 -4.46875 L -7.046875 -4.9375 C -7.046875 -5.8125 -7.066406 -6.375 -7.109375 -6.625 C -7.160156 -6.875 -7.273438 -7.097656 -7.453125 -7.296875 C -7.628906 -7.492188 -7.925781 -7.59375 -8.34375 -7.59375 C -8.632812 -7.59375 -8.878906 -7.507812 -9.078125 -7.34375 C -9.273438 -7.1875 -9.394531 -6.953125 -9.4375 -6.640625 C -9.476562 -6.335938 -9.5 -5.707031 -9.5 -4.75 Z M -5.03125 -4.46875 L -2.140625 -4.46875 L -2.140625 -5.78125 C -2.140625 -6.425781 -2.171875 -6.910156 -2.234375 -7.234375 C -2.304688 -7.566406 -2.457031 -7.832031 -2.6875 -8.03125 C -2.914062 -8.226562 -3.222656 -8.328125 -3.609375 -8.328125 C -4.085938 -8.328125 -4.4375 -8.191406 -4.65625 -7.921875 C -4.882812 -7.660156 -5.007812 -7.160156 -5.03125 -6.421875 Z M -5.03125 -4.46875 "/></g></g></g><g fill="#000000" fill-opacity="1"><g transform="translate(59.251583, 136.299254)"><g><path d="M 0 -10.078125 L 0 -7.265625 L -0.96875 -7.265625 C -0.476562 -6.609375 -0.15625 -6.078125 0 -5.671875 C 0.164062 -5.273438 0.25 -4.8125 0.25 -4.28125 C 0.25 -3.3125 -0.03125 -2.566406 -0.59375 -2.046875 C -1.15625 -1.523438 -1.976562 -1.265625 -3.0625 -1.265625 L -8.78125 -1.265625 L -8.78125 -4.09375 L -4.421875 -4.09375 C -3.316406 -4.09375 -2.640625 -4.207031 -2.390625 -4.4375 C -2.148438 -4.664062 -2.03125 -5.0625 -2.03125 -5.625 C -2.03125 -6.164062 -2.207031 -6.710938 -2.5625 -7.265625 L -8.78125 -7.265625 L -8.78125 -10.078125 Z M 0 -10.078125 "/></g></g></g><g fill="#000000" fill-opacity="1"><g transform="translate(59.251583, 124.903594)"><g><path d="M -0.078125 -6.9375 C 0.0859375 -6.332031 0.171875 -5.597656 0.171875 -4.734375 C 0.171875 -3.640625 -0.046875 -2.828125 -0.484375 -2.296875 C -0.929688 -1.765625 -1.691406 -1.5 -2.765625 -1.5 L -6.875 -1.5 L -6.875 -0.34375 L -8.78125 -0.34375 L -8.78125 -1.5 L -11.28125 -1.5 L -11.28125 -4.3125 L -8.78125 -4.3125 L -8.78125 -6.9375 L -6.875 -6.9375 L -6.875 -4.3125 L -3.765625 -4.3125 C -3.117188 -4.3125 -2.691406 -4.335938 -2.484375 -4.390625 C -2.273438 -4.441406 -2.097656 -4.554688 -1.953125 -4.734375 C -1.816406 -4.921875 -1.75 -5.222656 -1.75 -5.640625 C -1.75 -5.992188 -1.835938 -6.347656 -2.015625 -6.703125 L -2.015625 -6.9375 Z M -0.078125 -6.9375 "/></g></g></g><g fill="#000000" fill-opacity="1"><g transform="translate(59.251583, 117.616306)"><g><path d="M -0.078125 -6.9375 C 0.0859375 -6.332031 0.171875 -5.597656 0.171875 -4.734375 C 0.171875 -3.640625 -0.046875 -2.828125 -0.484375 -2.296875 C -0.929688 -1.765625 -1.691406 -1.5 -2.765625 -1.5 L -6.875 -1.5 L -6.875 -0.34375 L -8.78125 -0.34375 L -8.78125 -1.5 L -11.28125 -1.5 L -11.28125 -4.3125 L -8.78125 -4.3125 L -8.78125 -6.9375 L -6.875 -6.9375 L -6.875 -4.3125 L -3.765625 -4.3125 C -3.117188 -4.3125 -2.691406 -4.335938 -2.484375 -4.390625 C -2.273438 -4.441406 -2.097656 -4.554688 -1.953125 -4.734375 C -1.816406 -4.921875 -1.75 -5.222656 -1.75 -5.640625 C -1.75 -5.992188 -1.835938 -6.347656 -2.015625 -6.703125 L -2.015625 -6.9375 Z M -0.078125 -6.9375 "/></g></g></g><g fill="#000000" fill-opacity="1"><g transform="translate(59.251583, 110.329018)"><g><path d="M -3.875 -9.96875 L -3.875 -3.53125 C -2.457031 -3.625 -1.75 -4.597656 -1.75 -6.453125 C -1.75 -7.535156 -2.082031 -8.550781 -2.75 -9.5 L -2.75 -9.8125 L -0.5 -9.8125 C -0.0078125 -8.644531 0.234375 -7.421875 0.234375 -6.140625 C 0.234375 -4.390625 -0.15625 -3.039062 -0.9375 -2.09375 C -1.726562 -1.15625 -2.863281 -0.6875 -4.34375 -0.6875 C -5.789062 -0.6875 -6.9375 -1.128906 -7.78125 -2.015625 C -8.625 -2.910156 -9.046875 -4.128906 -9.046875 -5.671875 C -9.046875 -7.097656 -8.6875 -8.171875 -7.96875 -8.890625 C -7.25 -9.609375 -6.210938 -9.96875 -4.859375 -9.96875 Z M -5.515625 -7.171875 C -6.703125 -7.148438 -7.296875 -6.578125 -7.296875 -5.453125 C -7.296875 -4.253906 -6.703125 -3.613281 -5.515625 -3.53125 Z M -5.515625 -7.171875 "/></g></g></g><g fill="#000000" fill-opacity="1"><g transform="translate(59.251583, 99.706612)"><g><path d="M -6.09375 -7.6875 L -6.09375 -7.4375 L -6.15625 -7.09375 C -6.195312 -6.8125 -6.21875 -6.515625 -6.21875 -6.203125 C -6.21875 -5.453125 -6.101562 -4.765625 -5.875 -4.140625 L 0 -4.140625 L 0 -1.328125 L -8.78125 -1.328125 L -8.78125 -4.140625 L -7.484375 -4.140625 C -8.367188 -5.128906 -8.8125 -6.09375 -8.8125 -7.03125 C -8.8125 -7.28125 -8.800781 -7.5 -8.78125 -7.6875 Z M -6.09375 -7.6875 "/></g></g></g><g clip-path="url(#61fb0c07e1)"><path fill="#ffffff" d="M 0 374.992188 L 0 230.257812 L 85.535156 230.257812 L 85.535156 374.992188 Z M 0 374.992188 " fill-opacity="1" fill-rule="nonzero"/></g><g clip-path="url(#75bacc17a9)"><path stroke-linecap="butt" transform="matrix(0, -0.75, 0.75, 0, 0.00158665, 374.986646)" fill="none" stroke-linejoin="miter" d="M -0.00218063 -0.00211553 L 192.956165 -0.00211553 L 192.956165 114.029142 L -0.00218063 114.029142 Z M -0.00218063 -0.00211553 " stroke="#000000" stroke-width="1" stroke-opacity="1" stroke-miterlimit="4"/></g><g fill="#000000" fill-opacity="1"><g transform="translate(27.001585, 350.417437)"><g><path d="M -9.390625 -10.59375 L -9.390625 -6.953125 L 0 -6.953125 L 0 -3.953125 L -9.390625 -3.953125 L -9.390625 -0.328125 L -11.640625 -0.328125 L -11.640625 -10.59375 Z M -9.390625 -10.59375 "/></g></g></g><g fill="#000000" fill-opacity="1"><g transform="translate(27.001585, 339.513851)"><g><path d="M -10.03125 -4.21875 L -10.03125 -1.25 L -12.15625 -1.25 L -12.15625 -4.21875 Z M 0 -4.140625 L 0 -1.328125 L -8.78125 -1.328125 L -8.78125 -4.140625 Z M 0 -4.140625 "/></g></g></g><g fill="#000000" fill-opacity="1"><g transform="translate(27.001585, 334.046436)"><g><path d="M -6.21875 -9.90625 L 0 -9.90625 L 0 -7.078125 L -4.390625 -7.078125 C -5.359375 -7.078125 -5.992188 -6.992188 -6.296875 -6.828125 C -6.597656 -6.660156 -6.75 -6.269531 -6.75 -5.65625 C -6.75 -5.226562 -6.570312 -4.722656 -6.21875 -4.140625 L 0 -4.140625 L 0 -1.328125 L -8.78125 -1.328125 L -8.78125 -4.140625 L -7.8125 -4.140625 C -8.613281 -5.160156 -9.015625 -6.113281 -9.015625 -7 C -9.015625 -8.207031 -8.507812 -9.066406 -7.5 -9.578125 C -8.507812 -10.796875 -9.015625 -11.863281 -9.015625 -12.78125 C -9.015625 -14.707031 -7.914062 -15.671875 -5.71875 -15.671875 L 0 -15.671875 L 0 -12.84375 L -4.390625 -12.84375 C -5.359375 -12.84375 -5.992188 -12.765625 -6.296875 -12.609375 C -6.597656 -12.453125 -6.75 -12.054688 -6.75 -11.421875 C -6.75 -11.015625 -6.570312 -10.507812 -6.21875 -9.90625 Z M -6.21875 -9.90625 "/></g></g></g><g fill="#000000" fill-opacity="1"><g transform="translate(27.001585, 317.120878)"><g><path d="M -3.875 -9.96875 L -3.875 -3.53125 C -2.457031 -3.625 -1.75 -4.597656 -1.75 -6.453125 C -1.75 -7.535156 -2.082031 -8.550781 -2.75 -9.5 L -2.75 -9.8125 L -0.5 -9.8125 C -0.0078125 -8.644531 0.234375 -7.421875 0.234375 -6.140625 C 0.234375 -4.390625 -0.15625 -3.039062 -0.9375 -2.09375 C -1.726562 -1.15625 -2.863281 -0.6875 -4.34375 -0.6875 C -5.789062 -0.6875 -6.9375 -1.128906 -7.78125 -2.015625 C -8.625 -2.910156 -9.046875 -4.128906 -9.046875 -5.671875 C -9.046875 -7.097656 -8.6875 -8.171875 -7.96875 -8.890625 C -7.25 -9.609375 -6.210938 -9.96875 -4.859375 -9.96875 Z M -5.515625 -7.171875 C -6.703125 -7.148438 -7.296875 -6.578125 -7.296875 -5.453125 C -7.296875 -4.253906 -6.703125 -3.613281 -5.515625 -3.53125 Z M -5.515625 -7.171875 "/></g></g></g><g fill="#000000" fill-opacity="1"><g transform="translate(27.001585, 301.031058)"><g><path d="M -9.390625 -9.828125 L -9.390625 -4.46875 L -7.21875 -4.46875 L -7.21875 -9.4375 L -4.96875 -9.4375 L -4.96875 -4.46875 L 0 -4.46875 L 0 -1.484375 L -11.640625 -1.484375 L -11.640625 -9.828125 Z M -9.390625 -9.828125 "/></g></g></g><g fill="#000000" fill-opacity="1"><g transform="translate(27.001585, 290.627349)"><g><path d="M 0.28125 -5.5 C 0.28125 -3.96875 -0.132812 -2.78125 -0.96875 -1.9375 C -1.800781 -1.101562 -2.941406 -0.6875 -4.390625 -0.6875 C -5.847656 -0.6875 -6.988281 -1.109375 -7.8125 -1.953125 C -8.632812 -2.804688 -9.046875 -3.988281 -9.046875 -5.5 C -9.046875 -7.03125 -8.625 -8.210938 -7.78125 -9.046875 C -6.945312 -9.878906 -5.816406 -10.296875 -4.390625 -10.296875 C -2.953125 -10.296875 -1.8125 -9.875 -0.96875 -9.03125 C -0.132812 -8.195312 0.28125 -7.019531 0.28125 -5.5 Z M -4.375 -7.390625 C -6.1875 -7.390625 -7.09375 -6.757812 -7.09375 -5.5 C -7.09375 -4.238281 -6.1875 -3.609375 -4.375 -3.609375 C -2.582031 -3.609375 -1.6875 -4.242188 -1.6875 -5.515625 C -1.6875 -6.765625 -2.582031 -7.390625 -4.375 -7.390625 Z M -4.375 -7.390625 "/></g></g></g><g fill="#000000" fill-opacity="1"><g transform="translate(27.001585, 279.645657)"><g><path d="M -6.09375 -7.6875 L -6.09375 -7.4375 L -6.15625 -7.09375 C -6.195312 -6.8125 -6.21875 -6.515625 -6.21875 -6.203125 C -6.21875 -5.453125 -6.101562 -4.765625 -5.875 -4.140625 L 0 -4.140625 L 0 -1.328125 L -8.78125 -1.328125 L -8.78125 -4.140625 L -7.484375 -4.140625 C -8.367188 -5.128906 -8.8125 -6.09375 -8.8125 -7.03125 C -8.8125 -7.28125 -8.800781 -7.5 -8.78125 -7.6875 Z M -6.09375 -7.6875 "/></g></g></g><g fill="#000000" fill-opacity="1"><g transform="translate(27.001585, 266.227059)"><g><path d="M 0 -9.84375 L 0 -2.078125 L -2.03125 -2.078125 L -2.03125 -4.53125 L -8.1875 -4.53125 L -8.1875 -2.078125 L -10.078125 -2.078125 C -10.078125 -3.054688 -10.203125 -3.753906 -10.453125 -4.171875 C -10.710938 -4.597656 -11.117188 -4.828125 -11.671875 -4.859375 L -11.671875 -7.453125 L -2.03125 -7.453125 L -2.03125 -9.84375 Z M 0 -9.84375 "/></g></g></g><g fill="#000000" fill-opacity="1"><g transform="translate(48.751583, 339.601032)"><g><path d="M -10.890625 -10.859375 L -8.078125 -10.859375 L -8.078125 -10.515625 C -9.109375 -9.328125 -9.625 -8.226562 -9.625 -7.21875 C -9.625 -6.226562 -9.289062 -5.429688 -8.625 -4.828125 C -7.96875 -4.222656 -7.023438 -3.921875 -5.796875 -3.921875 C -4.578125 -3.921875 -3.640625 -4.222656 -2.984375 -4.828125 C -2.335938 -5.441406 -2.015625 -6.242188 -2.015625 -7.234375 C -2.015625 -8.296875 -2.53125 -9.398438 -3.5625 -10.546875 L -3.5625 -10.859375 L -0.78125 -10.859375 C -0.414062 -10.078125 -0.15625 -9.394531 0 -8.8125 C 0.15625 -8.238281 0.234375 -7.550781 0.234375 -6.75 C 0.234375 -4.9375 -0.289062 -3.492188 -1.34375 -2.421875 C -2.394531 -1.347656 -3.882812 -0.8125 -5.8125 -0.8125 C -7.675781 -0.8125 -9.148438 -1.347656 -10.234375 -2.421875 C -11.316406 -3.492188 -11.859375 -4.9375 -11.859375 -6.75 C -11.859375 -8.207031 -11.535156 -9.578125 -10.890625 -10.859375 Z M -10.890625 -10.859375 "/></g></g></g><g fill="#000000" fill-opacity="1"><g transform="translate(48.751583, 328.025734)"><g><path d="M -6.09375 -7.6875 L -6.09375 -7.4375 L -6.15625 -7.09375 C -6.195312 -6.8125 -6.21875 -6.515625 -6.21875 -6.203125 C -6.21875 -5.453125 -6.101562 -4.765625 -5.875 -4.140625 L 0 -4.140625 L 0 -1.328125 L -8.78125 -1.328125 L -8.78125 -4.140625 L -7.484375 -4.140625 C -8.367188 -5.128906 -8.8125 -6.09375 -8.8125 -7.03125 C -8.8125 -7.28125 -8.800781 -7.5 -8.78125 -7.6875 Z M -6.09375 -7.6875 "/></g></g></g><g fill="#000000" fill-opacity="1"><g transform="translate(48.751583, 320.074552)"><g><path d="M -0.9375 -6.640625 C -0.488281 -6.078125 -0.179688 -5.582031 -0.015625 -5.15625 C 0.148438 -4.726562 0.234375 -4.210938 0.234375 -3.609375 C 0.234375 -2.773438 -0.0195312 -2.078125 -0.53125 -1.515625 C -1.050781 -0.953125 -1.710938 -0.671875 -2.515625 -0.671875 C -3.535156 -0.671875 -4.300781 -1.0625 -4.8125 -1.84375 C -5.320312 -2.632812 -5.640625 -4.238281 -5.765625 -6.65625 L -5.8125 -6.65625 C -6.257812 -6.65625 -6.582031 -6.476562 -6.78125 -6.125 C -6.988281 -5.769531 -7.09375 -5.164062 -7.09375 -4.3125 C -7.09375 -3.71875 -6.882812 -2.847656 -6.46875 -1.703125 L -6.46875 -1.4375 L -8.59375 -1.4375 C -8.882812 -2.664062 -9.03125 -3.820312 -9.03125 -4.90625 C -9.03125 -6.5 -8.78125 -7.648438 -8.28125 -8.359375 C -7.789062 -9.078125 -7.019531 -9.4375 -5.96875 -9.4375 L 0 -9.4375 L 0 -6.640625 Z M -2.296875 -6.640625 L -4.125 -6.640625 C -4.019531 -5.335938 -3.875 -4.492188 -3.6875 -4.109375 C -3.5 -3.722656 -3.1875 -3.53125 -2.75 -3.53125 C -2.34375 -3.53125 -2.0625 -3.644531 -1.90625 -3.875 C -1.75 -4.113281 -1.671875 -4.5 -1.671875 -5.03125 C -1.671875 -5.601562 -1.878906 -6.140625 -2.296875 -6.640625 Z M -2.296875 -6.640625 "/></g></g></g><g fill="#000000" fill-opacity="1"><g transform="translate(48.751583, 309.389661)"><g><path d="M -0.078125 -6.9375 C 0.0859375 -6.332031 0.171875 -5.597656 0.171875 -4.734375 C 0.171875 -3.640625 -0.046875 -2.828125 -0.484375 -2.296875 C -0.929688 -1.765625 -1.691406 -1.5 -2.765625 -1.5 L -6.875 -1.5 L -6.875 -0.34375 L -8.78125 -0.34375 L -8.78125 -1.5 L -11.28125 -1.5 L -11.28125 -4.3125 L -8.78125 -4.3125 L -8.78125 -6.9375 L -6.875 -6.9375 L -6.875 -4.3125 L -3.765625 -4.3125 C -3.117188 -4.3125 -2.691406 -4.335938 -2.484375 -4.390625 C -2.273438 -4.441406 -2.097656 -4.554688 -1.953125 -4.734375 C -1.816406 -4.921875 -1.75 -5.222656 -1.75 -5.640625 C -1.75 -5.992188 -1.835938 -6.347656 -2.015625 -6.703125 L -2.015625 -6.9375 Z M -0.078125 -6.9375 "/></g></g></g><g fill="#000000" fill-opacity="1"><g transform="translate(48.751583, 302.102373)"><g><path d="M -3.875 -9.96875 L -3.875 -3.53125 C -2.457031 -3.625 -1.75 -4.597656 -1.75 -6.453125 C -1.75 -7.535156 -2.082031 -8.550781 -2.75 -9.5 L -2.75 -9.8125 L -0.5 -9.8125 C -0.0078125 -8.644531 0.234375 -7.421875 0.234375 -6.140625 C 0.234375 -4.390625 -0.15625 -3.039062 -0.9375 -2.09375 C -1.726562 -1.15625 -2.863281 -0.6875 -4.34375 -0.6875 C -5.789062 -0.6875 -6.9375 -1.128906 -7.78125 -2.015625 C -8.625 -2.910156 -9.046875 -4.128906 -9.046875 -5.671875 C -9.046875 -7.097656 -8.6875 -8.171875 -7.96875 -8.890625 C -7.25 -9.609375 -6.210938 -9.96875 -4.859375 -9.96875 Z M -5.515625 -7.171875 C -6.703125 -7.148438 -7.296875 -6.578125 -7.296875 -5.453125 C -7.296875 -4.253906 -6.703125 -3.613281 -5.515625 -3.53125 Z M -5.515625 -7.171875 "/></g></g></g><g fill="#000000" fill-opacity="1"><g transform="translate(48.751583, 291.479968)"><g/></g></g><g fill="#000000" fill-opacity="1"><g transform="translate(48.751583, 286.012553)"><g><path d="M 0.25 -6.796875 C 0.25 -4.921875 -0.296875 -3.453125 -1.390625 -2.390625 C -2.484375 -1.335938 -3.957031 -0.8125 -5.8125 -0.8125 C -7.675781 -0.8125 -9.148438 -1.34375 -10.234375 -2.40625 C -11.328125 -3.46875 -11.875 -4.929688 -11.875 -6.796875 C -11.875 -8.648438 -11.332031 -10.113281 -10.25 -11.1875 C -9.164062 -12.257812 -7.6875 -12.796875 -5.8125 -12.796875 C -3.957031 -12.796875 -2.484375 -12.265625 -1.390625 -11.203125 C -0.296875 -10.148438 0.25 -8.679688 0.25 -6.796875 Z M -5.828125 -9.6875 C -7.066406 -9.6875 -8.019531 -9.421875 -8.6875 -8.890625 C -9.351562 -8.367188 -9.6875 -7.675781 -9.6875 -6.8125 C -9.6875 -5.925781 -9.347656 -5.222656 -8.671875 -4.703125 C -8.003906 -4.179688 -7.050781 -3.921875 -5.8125 -3.921875 C -4.582031 -3.921875 -3.628906 -4.179688 -2.953125 -4.703125 C -2.285156 -5.222656 -1.953125 -5.925781 -1.953125 -6.8125 C -1.953125 -7.65625 -2.28125 -8.34375 -2.9375 -8.875 C -3.59375 -9.414062 -4.554688 -9.6875 -5.828125 -9.6875 Z M -5.828125 -9.6875 "/></g></g></g><g fill="#000000" fill-opacity="1"><g transform="translate(48.751583, 272.414307)"><g><path d="M -10.09375 -7.015625 L -10.09375 -6.8125 L -10.203125 -6.421875 C -10.265625 -6.148438 -10.296875 -5.898438 -10.296875 -5.671875 C -10.296875 -5.128906 -10.195312 -4.757812 -10 -4.5625 C -9.8125 -4.363281 -9.425781 -4.265625 -8.84375 -4.265625 L -8.78125 -4.265625 L -8.78125 -6.4375 L -6.875 -6.4375 L -6.875 -4.359375 L 0 -4.359375 L 0 -1.546875 L -6.875 -1.546875 L -6.875 -0.34375 L -8.78125 -0.34375 L -8.78125 -1.546875 L -9.015625 -1.546875 C -11.160156 -1.546875 -12.234375 -2.691406 -12.234375 -4.984375 C -12.234375 -5.753906 -12.179688 -6.429688 -12.078125 -7.015625 Z M -10.09375 -7.015625 "/></g></g></g><g fill="#000000" fill-opacity="1"><g transform="translate(70.501582, 339.366657)"><g><path d="M -0.671875 -11.78125 C -0.0546875 -10.125 0.25 -8.578125 0.25 -7.140625 C 0.25 -5.148438 -0.285156 -3.597656 -1.359375 -2.484375 C -2.441406 -1.367188 -3.929688 -0.8125 -5.828125 -0.8125 C -7.640625 -0.8125 -9.097656 -1.378906 -10.203125 -2.515625 C -11.304688 -3.648438 -11.859375 -5.222656 -11.859375 -7.234375 C -11.859375 -8.867188 -11.515625 -10.367188 -10.828125 -11.734375 L -8.109375 -11.734375 L -8.109375 -11.390625 C -9.160156 -10.046875 -9.6875 -8.78125 -9.6875 -7.59375 C -9.6875 -6.457031 -9.34375 -5.5625 -8.65625 -4.90625 C -7.96875 -4.25 -7.039062 -3.921875 -5.875 -3.921875 C -3.226562 -3.921875 -1.90625 -5.269531 -1.90625 -7.96875 C -1.90625 -8.25 -1.914062 -8.503906 -1.9375 -8.734375 L -4.21875 -8.734375 L -4.21875 -6.40625 L -6.40625 -6.40625 L -6.40625 -11.78125 Z M -0.671875 -11.78125 "/></g></g></g><g fill="#000000" fill-opacity="1"><g transform="translate(70.501582, 326.393258)"><g><path d="M -6.09375 -7.6875 L -6.09375 -7.4375 L -6.15625 -7.09375 C -6.195312 -6.8125 -6.21875 -6.515625 -6.21875 -6.203125 C -6.21875 -5.453125 -6.101562 -4.765625 -5.875 -4.140625 L 0 -4.140625 L 0 -1.328125 L -8.78125 -1.328125 L -8.78125 -4.140625 L -7.484375 -4.140625 C -8.367188 -5.128906 -8.8125 -6.09375 -8.8125 -7.03125 C -8.8125 -7.28125 -8.800781 -7.5 -8.78125 -7.6875 Z M -6.09375 -7.6875 "/></g></g></g><g fill="#000000" fill-opacity="1"><g transform="translate(70.501582, 318.442075)"><g><path d="M -3.875 -9.96875 L -3.875 -3.53125 C -2.457031 -3.625 -1.75 -4.597656 -1.75 -6.453125 C -1.75 -7.535156 -2.082031 -8.550781 -2.75 -9.5 L -2.75 -9.8125 L -0.5 -9.8125 C -0.0078125 -8.644531 0.234375 -7.421875 0.234375 -6.140625 C 0.234375 -4.390625 -0.15625 -3.039062 -0.9375 -2.09375 C -1.726562 -1.15625 -2.863281 -0.6875 -4.34375 -0.6875 C -5.789062 -0.6875 -6.9375 -1.128906 -7.78125 -2.015625 C -8.625 -2.910156 -9.046875 -4.128906 -9.046875 -5.671875 C -9.046875 -7.097656 -8.6875 -8.171875 -7.96875 -8.890625 C -7.25 -9.609375 -6.210938 -9.96875 -4.859375 -9.96875 Z M -5.515625 -7.171875 C -6.703125 -7.148438 -7.296875 -6.578125 -7.296875 -5.453125 C -7.296875 -4.253906 -6.703125 -3.613281 -5.515625 -3.53125 Z M -5.515625 -7.171875 "/></g></g></g><g fill="#000000" fill-opacity="1"><g transform="translate(70.501582, 307.819669)"><g><path d="M -3.875 -9.96875 L -3.875 -3.53125 C -2.457031 -3.625 -1.75 -4.597656 -1.75 -6.453125 C -1.75 -7.535156 -2.082031 -8.550781 -2.75 -9.5 L -2.75 -9.8125 L -0.5 -9.8125 C -0.0078125 -8.644531 0.234375 -7.421875 0.234375 -6.140625 C 0.234375 -4.390625 -0.15625 -3.039062 -0.9375 -2.09375 C -1.726562 -1.15625 -2.863281 -0.6875 -4.34375 -0.6875 C -5.789062 -0.6875 -6.9375 -1.128906 -7.78125 -2.015625 C -8.625 -2.910156 -9.046875 -4.128906 -9.046875 -5.671875 C -9.046875 -7.097656 -8.6875 -8.171875 -7.96875 -8.890625 C -7.25 -9.609375 -6.210938 -9.96875 -4.859375 -9.96875 Z M -5.515625 -7.171875 C -6.703125 -7.148438 -7.296875 -6.578125 -7.296875 -5.453125 C -7.296875 -4.253906 -6.703125 -3.613281 -5.515625 -3.53125 Z M -5.515625 -7.171875 "/></g></g></g><g fill="#000000" fill-opacity="1"><g transform="translate(70.501582, 297.197264)"><g><path d="M -0.4375 -4.140625 L 0 -4.03125 L 0 -1.328125 L -12.15625 -1.328125 L -12.15625 -4.140625 L -7.859375 -4.140625 C -8.628906 -5.097656 -9.015625 -6.0625 -9.015625 -7.03125 C -9.015625 -8.132812 -8.613281 -8.984375 -7.8125 -9.578125 C -7.019531 -10.179688 -5.921875 -10.484375 -4.515625 -10.484375 C -3.128906 -10.484375 -2 -10.097656 -1.125 -9.328125 C -0.257812 -8.566406 0.171875 -7.617188 0.171875 -6.484375 C 0.171875 -5.597656 -0.03125 -4.816406 -0.4375 -4.140625 Z M -6.421875 -4.140625 L -2.015625 -4.140625 C -1.890625 -4.472656 -1.828125 -4.882812 -1.828125 -5.375 C -1.828125 -6.851562 -2.703125 -7.59375 -4.453125 -7.59375 C -5.234375 -7.59375 -5.832031 -7.457031 -6.25 -7.1875 C -6.675781 -6.925781 -6.890625 -6.453125 -6.890625 -5.765625 C -6.890625 -5.210938 -6.734375 -4.671875 -6.421875 -4.140625 Z M -6.421875 -4.140625 "/></g></g></g><g fill="#000000" fill-opacity="1"><g transform="translate(70.501582, 286.012496)"><g><path d="M -3.875 -9.96875 L -3.875 -3.53125 C -2.457031 -3.625 -1.75 -4.597656 -1.75 -6.453125 C -1.75 -7.535156 -2.082031 -8.550781 -2.75 -9.5 L -2.75 -9.8125 L -0.5 -9.8125 C -0.0078125 -8.644531 0.234375 -7.421875 0.234375 -6.140625 C 0.234375 -4.390625 -0.15625 -3.039062 -0.9375 -2.09375 C -1.726562 -1.15625 -2.863281 -0.6875 -4.34375 -0.6875 C -5.789062 -0.6875 -6.9375 -1.128906 -7.78125 -2.015625 C -8.625 -2.910156 -9.046875 -4.128906 -9.046875 -5.671875 C -9.046875 -7.097656 -8.6875 -8.171875 -7.96875 -8.890625 C -7.25 -9.609375 -6.210938 -9.96875 -4.859375 -9.96875 Z M -5.515625 -7.171875 C -6.703125 -7.148438 -7.296875 -6.578125 -7.296875 -5.453125 C -7.296875 -4.253906 -6.703125 -3.613281 -5.515625 -3.53125 Z M -5.515625 -7.171875 "/></g></g></g><g fill="#000000" fill-opacity="1"><g transform="translate(70.501582, 275.390091)"><g><path d="M -0.46875 -0.75 L -2.78125 -0.75 L -2.78125 -1 C -2.019531 -2.101562 -1.640625 -3.253906 -1.640625 -4.453125 C -1.640625 -5.535156 -1.878906 -6.078125 -2.359375 -6.078125 C -2.585938 -6.078125 -2.757812 -5.960938 -2.875 -5.734375 C -3 -5.515625 -3.125 -4.972656 -3.25 -4.109375 C -3.582031 -1.890625 -4.523438 -0.78125 -6.078125 -0.78125 C -6.921875 -0.78125 -7.617188 -1.179688 -8.171875 -1.984375 C -8.734375 -2.785156 -9.015625 -3.878906 -9.015625 -5.265625 C -9.015625 -6.421875 -8.804688 -7.519531 -8.390625 -8.5625 L -6.171875 -8.5625 L -6.171875 -8.3125 C -6.816406 -7.34375 -7.140625 -6.328125 -7.140625 -5.265625 C -7.140625 -4.816406 -7.078125 -4.4375 -6.953125 -4.125 C -6.828125 -3.8125 -6.648438 -3.65625 -6.421875 -3.65625 C -6.179688 -3.65625 -6 -3.765625 -5.875 -3.984375 C -5.757812 -4.203125 -5.617188 -4.804688 -5.453125 -5.796875 C -5.242188 -7.046875 -4.914062 -7.882812 -4.46875 -8.3125 C -4.019531 -8.738281 -3.457031 -8.953125 -2.78125 -8.953125 C -1.875 -8.953125 -1.140625 -8.546875 -0.578125 -7.734375 C -0.0234375 -6.929688 0.25 -5.820312 0.25 -4.40625 C 0.25 -3.050781 0.0078125 -1.832031 -0.46875 -0.75 Z M -0.46875 -0.75 "/></g></g></g><g clip-path="url(#42b81d1a49)"><path fill="#ffffff" d="M 85.535156 85.535156 L 230.265625 85.535156 L 230.265625 230.265625 L 85.535156 230.265625 Z M 85.535156 85.535156 " fill-opacity="1" fill-rule="nonzero"/></g><g clip-path="url(#3c56e77003)"><path stroke-linecap="butt" transform="matrix(0.75, 0, 0, 0.75, 85.533361, 85.533357)" fill="none" stroke-linejoin="miter" d="M 0.00239329 0.00239929 L 192.971156 0.00239929 L 192.971156 192.971162 L 0.00239329 192.971162 Z M 0.00239329 0.00239929 " stroke="#000000" stroke-width="1" stroke-opacity="1" stroke-miterlimit="4"/></g><g fill="#000000" fill-opacity="1"><g transform="translate(106.357579, 164.283352)"><g><path d="M 0.71875 0 L 0.71875 -2.21875 L 3.984375 -2.21875 L 3.984375 -10.65625 L 3.78125 -10.71875 C 3.3125 -10.488281 2.851562 -10.304688 2.40625 -10.171875 C 1.957031 -10.046875 1.445312 -9.945312 0.875 -9.875 L 0.875 -12.171875 C 2.375 -12.484375 3.585938 -12.945312 4.515625 -13.5625 L 6.640625 -13.5625 L 6.640625 -2.21875 L 9.5625 -2.21875 L 9.5625 0 Z M 0.71875 0 "/></g></g></g><g fill="#000000" fill-opacity="1"><g transform="translate(116.36578, 164.283352)"><g><path d="M 6.625 0.1875 C 5.519531 0.1875 4.554688 -0.0546875 3.734375 -0.546875 C 2.910156 -1.035156 2.269531 -1.796875 1.8125 -2.828125 C 1.363281 -3.867188 1.140625 -5.1875 1.140625 -6.78125 C 1.140625 -8.375 1.363281 -9.6875 1.8125 -10.71875 C 2.269531 -11.757812 2.910156 -12.523438 3.734375 -13.015625 C 4.554688 -13.515625 5.519531 -13.765625 6.625 -13.765625 C 7.738281 -13.765625 8.703125 -13.515625 9.515625 -13.015625 C 10.335938 -12.523438 10.972656 -11.757812 11.421875 -10.71875 C 11.878906 -9.6875 12.109375 -8.375 12.109375 -6.78125 C 12.109375 -5.1875 11.878906 -3.867188 11.421875 -2.828125 C 10.972656 -1.796875 10.335938 -1.035156 9.515625 -0.546875 C 8.703125 -0.0546875 7.738281 0.1875 6.625 0.1875 Z M 6.625 -2.078125 C 7.226562 -2.078125 7.734375 -2.222656 8.140625 -2.515625 C 8.554688 -2.804688 8.875 -3.296875 9.09375 -3.984375 C 9.3125 -4.679688 9.421875 -5.613281 9.421875 -6.78125 C 9.421875 -7.945312 9.3125 -8.875 9.09375 -9.5625 C 8.875 -10.257812 8.554688 -10.753906 8.140625 -11.046875 C 7.734375 -11.335938 7.226562 -11.484375 6.625 -11.484375 C 6.019531 -11.484375 5.507812 -11.335938 5.09375 -11.046875 C 4.6875 -10.753906 4.375 -10.257812 4.15625 -9.5625 C 3.9375 -8.875 3.828125 -7.945312 3.828125 -6.78125 C 3.828125 -5.613281 3.9375 -4.679688 4.15625 -3.984375 C 4.375 -3.296875 4.6875 -2.804688 5.09375 -2.515625 C 5.507812 -2.222656 6.019531 -2.078125 6.625 -2.078125 Z M 6.625 -2.078125 "/></g></g></g><g fill="#000000" fill-opacity="1"><g transform="translate(129.620383, 164.283352)"><g/></g></g><g fill="#000000" fill-opacity="1"><g transform="translate(134.100424, 164.283352)"><g><path d="M 4.21875 0 L 1.765625 0 L 1.765625 -13.5625 L 5.265625 -13.5625 L 8.703125 -3.59375 L 8.890625 -3.59375 L 12.3125 -13.5625 L 15.734375 -13.5625 L 15.734375 0 L 13.1875 0 L 13.1875 -8.96875 L 12.953125 -9 L 9.828125 0 L 7.59375 0 L 4.453125 -9 L 4.21875 -8.96875 Z M 4.21875 0 "/></g></g></g><g fill="#000000" fill-opacity="1"><g transform="translate(151.603178, 164.283352)"><g><path d="M 2.75 -11.453125 C 2.289062 -11.453125 1.914062 -11.59375 1.625 -11.875 C 1.332031 -12.15625 1.1875 -12.519531 1.1875 -12.96875 C 1.1875 -13.40625 1.332031 -13.765625 1.625 -14.046875 C 1.914062 -14.328125 2.289062 -14.46875 2.75 -14.46875 C 3.0625 -14.46875 3.335938 -14.398438 3.578125 -14.265625 C 3.816406 -14.140625 4.003906 -13.960938 4.140625 -13.734375 C 4.273438 -13.515625 4.34375 -13.257812 4.34375 -12.96875 C 4.34375 -12.675781 4.273438 -12.414062 4.140625 -12.1875 C 4.003906 -11.957031 3.816406 -11.773438 3.578125 -11.640625 C 3.335938 -11.515625 3.0625 -11.453125 2.75 -11.453125 Z M 1.46875 0 L 1.46875 -10.234375 L 4.046875 -10.234375 L 4.046875 0 Z M 1.46875 0 "/></g></g></g><g fill="#000000" fill-opacity="1"><g transform="translate(157.112787, 164.283352)"><g><path d="M 1.46875 0 L 1.46875 -10.234375 L 3.9375 -10.234375 L 3.9375 -8.734375 L 4.140625 -8.6875 C 4.773438 -9.84375 5.804688 -10.421875 7.234375 -10.421875 C 8.421875 -10.421875 9.289062 -10.097656 9.84375 -9.453125 C 10.394531 -8.816406 10.671875 -7.882812 10.671875 -6.65625 L 10.671875 0 L 8.09375 0 L 8.09375 -6.34375 C 8.09375 -7.019531 7.957031 -7.503906 7.6875 -7.796875 C 7.414062 -8.097656 6.984375 -8.25 6.390625 -8.25 C 5.648438 -8.25 5.070312 -8.007812 4.65625 -7.53125 C 4.25 -7.0625 4.046875 -6.316406 4.046875 -5.296875 L 4.046875 0 Z M 1.46875 0 "/></g></g></g><g fill="#000000" fill-opacity="1"><g transform="translate(169.09665, 164.283352)"><g><path d="M 4.6875 0.1875 C 3.53125 0.1875 2.675781 -0.125 2.125 -0.75 C 1.582031 -1.375 1.3125 -2.273438 1.3125 -3.453125 L 1.3125 -10.234375 L 3.890625 -10.234375 L 3.890625 -3.78125 C 3.890625 -3.15625 4.019531 -2.695312 4.28125 -2.40625 C 4.550781 -2.113281 4.96875 -1.96875 5.53125 -1.96875 C 6.25 -1.96875 6.804688 -2.203125 7.203125 -2.671875 C 7.597656 -3.140625 7.796875 -3.875 7.796875 -4.875 L 7.796875 -10.234375 L 10.359375 -10.234375 L 10.359375 0 L 7.890625 0 L 7.890625 -1.5 L 7.703125 -1.546875 C 7.367188 -0.960938 6.96875 -0.523438 6.5 -0.234375 C 6.03125 0.046875 5.425781 0.1875 4.6875 0.1875 Z M 4.6875 0.1875 "/></g></g></g><g fill="#000000" fill-opacity="1"><g transform="translate(180.932106, 164.283352)"><g><path d="M 7.0625 -2.4375 L 7.734375 -0.53125 C 7.453125 -0.300781 7.097656 -0.125 6.671875 0 C 6.253906 0.125 5.78125 0.1875 5.25 0.1875 C 4.144531 0.1875 3.300781 -0.109375 2.71875 -0.703125 C 2.144531 -1.304688 1.859375 -2.1875 1.859375 -3.34375 L 1.859375 -8.203125 L 0.3125 -8.203125 L 0.3125 -10.25 L 1.859375 -10.25 L 1.859375 -12.234375 L 4.4375 -12.65625 L 4.4375 -10.25 L 7.34375 -10.25 L 7.34375 -8.203125 L 4.4375 -8.203125 L 4.4375 -3.53125 C 4.4375 -3.019531 4.539062 -2.644531 4.75 -2.40625 C 4.957031 -2.175781 5.265625 -2.0625 5.671875 -2.0625 C 6.128906 -2.0625 6.523438 -2.1875 6.859375 -2.4375 Z M 7.0625 -2.4375 "/></g></g></g><g fill="#000000" fill-opacity="1"><g transform="translate(188.88116, 164.283352)"><g><path d="M 10.109375 -4.53125 L 3.53125 -4.53125 C 3.601562 -3.644531 3.851562 -3 4.28125 -2.59375 C 4.71875 -2.1875 5.3125 -1.984375 6.0625 -1.984375 C 6.65625 -1.984375 7.132812 -2.09375 7.5 -2.3125 C 7.863281 -2.53125 8.15625 -2.863281 8.375 -3.3125 L 8.578125 -3.3125 L 10.28125 -2.21875 C 9.945312 -1.5 9.441406 -0.914062 8.765625 -0.46875 C 8.085938 -0.03125 7.1875 0.1875 6.0625 0.1875 C 5.007812 0.1875 4.097656 -0.0078125 3.328125 -0.40625 C 2.554688 -0.8125 1.960938 -1.410156 1.546875 -2.203125 C 1.128906 -2.992188 0.921875 -3.960938 0.921875 -5.109375 C 0.921875 -6.273438 1.140625 -7.253906 1.578125 -8.046875 C 2.015625 -8.847656 2.609375 -9.441406 3.359375 -9.828125 C 4.109375 -10.222656 4.945312 -10.421875 5.875 -10.421875 C 7.320312 -10.421875 8.429688 -10.035156 9.203125 -9.265625 C 9.972656 -8.503906 10.359375 -7.382812 10.359375 -5.90625 C 10.359375 -5.363281 10.34375 -4.941406 10.3125 -4.640625 Z M 7.90625 -6.203125 C 7.882812 -6.972656 7.703125 -7.535156 7.359375 -7.890625 C 7.023438 -8.253906 6.53125 -8.4375 5.875 -8.4375 C 4.582031 -8.4375 3.820312 -7.691406 3.59375 -6.203125 Z M 7.90625 -6.203125 "/></g></g></g><g fill="#000000" fill-opacity="1"><g transform="translate(200.002413, 164.283352)"><g><path d="M 4.78125 0.1875 C 4.082031 0.1875 3.441406 0.109375 2.859375 -0.046875 C 2.285156 -0.210938 1.789062 -0.4375 1.375 -0.71875 C 0.96875 -1.007812 0.664062 -1.34375 0.46875 -1.71875 L 1.890625 -3.25 L 2.09375 -3.25 C 2.425781 -2.789062 2.820312 -2.445312 3.28125 -2.21875 C 3.75 -2 4.257812 -1.890625 4.8125 -1.890625 C 5.3125 -1.890625 5.6875 -1.976562 5.9375 -2.15625 C 6.1875 -2.332031 6.3125 -2.585938 6.3125 -2.921875 C 6.3125 -3.179688 6.21875 -3.398438 6.03125 -3.578125 C 5.851562 -3.753906 5.5625 -3.890625 5.15625 -3.984375 L 3.796875 -4.3125 C 2.785156 -4.550781 2.046875 -4.921875 1.578125 -5.421875 C 1.109375 -5.921875 0.875 -6.550781 0.875 -7.3125 C 0.875 -7.957031 1.035156 -8.515625 1.359375 -8.984375 C 1.691406 -9.453125 2.148438 -9.804688 2.734375 -10.046875 C 3.328125 -10.296875 4.019531 -10.421875 4.8125 -10.421875 C 5.726562 -10.421875 6.488281 -10.285156 7.09375 -10.015625 C 7.695312 -9.753906 8.171875 -9.40625 8.515625 -8.96875 L 7.140625 -7.484375 L 6.953125 -7.484375 C 6.671875 -7.796875 6.351562 -8.023438 6 -8.171875 C 5.644531 -8.328125 5.25 -8.40625 4.8125 -8.40625 C 3.789062 -8.40625 3.28125 -8.085938 3.28125 -7.453125 C 3.28125 -7.191406 3.375 -6.976562 3.5625 -6.8125 C 3.75 -6.644531 4.082031 -6.507812 4.5625 -6.40625 L 5.828125 -6.125 C 6.867188 -5.90625 7.628906 -5.546875 8.109375 -5.046875 C 8.585938 -4.554688 8.828125 -3.898438 8.828125 -3.078125 C 8.828125 -2.421875 8.664062 -1.84375 8.34375 -1.34375 C 8.019531 -0.851562 7.554688 -0.472656 6.953125 -0.203125 C 6.347656 0.0546875 5.625 0.1875 4.78125 0.1875 Z M 4.78125 0.1875 "/></g></g></g><g clip-path="url(#45d2c1aa69)"><path fill="#ffffff" d="M 230.265625 85.535156 L 375 85.535156 L 375 230.265625 L 230.265625 230.265625 Z M 230.265625 85.535156 " fill-opacity="1" fill-rule="nonzero"/></g><g clip-path="url(#fb3c9440a1)"><path stroke-linecap="butt" transform="matrix(0.75, 0, 0, 0.75, 230.266674, 85.533357)" fill="none" stroke-linejoin="miter" d="M -0.00139891 0.00239929 L 192.967364 0.00239929 L 192.967364 192.971162 L -0.00139891 192.971162 Z M -0.00139891 0.00239929 " stroke="#000000" stroke-width="1" stroke-opacity="1" stroke-miterlimit="4"/></g><g fill="#000000" fill-opacity="1"><g transform="translate(256.997141, 164.283352)"><g><path d="M 5.65625 0.1875 C 4.300781 0.1875 3.222656 -0.09375 2.421875 -0.65625 C 1.628906 -1.226562 1.113281 -2.023438 0.875 -3.046875 L 2.90625 -3.9375 L 3.125 -3.90625 C 3.320312 -3.300781 3.613281 -2.847656 4 -2.546875 C 4.394531 -2.242188 4.9375 -2.09375 5.625 -2.09375 C 6.332031 -2.09375 6.875 -2.289062 7.25 -2.6875 C 7.632812 -3.09375 7.828125 -3.695312 7.828125 -4.5 C 7.828125 -5.289062 7.632812 -5.890625 7.25 -6.296875 C 6.875 -6.703125 6.359375 -6.90625 5.703125 -6.90625 C 5.203125 -6.90625 4.78125 -6.796875 4.4375 -6.578125 C 4.101562 -6.367188 3.820312 -6.050781 3.59375 -5.625 L 1.375 -5.78125 L 1.65625 -13.5625 L 9.71875 -13.5625 L 9.71875 -11.3125 L 3.90625 -11.3125 L 3.78125 -7.84375 L 3.96875 -7.8125 C 4.28125 -8.226562 4.65625 -8.539062 5.09375 -8.75 C 5.539062 -8.96875 6.070312 -9.078125 6.6875 -9.078125 C 7.457031 -9.078125 8.128906 -8.90625 8.703125 -8.5625 C 9.285156 -8.21875 9.734375 -7.707031 10.046875 -7.03125 C 10.367188 -6.351562 10.53125 -5.523438 10.53125 -4.546875 C 10.53125 -3.546875 10.335938 -2.691406 9.953125 -1.984375 C 9.578125 -1.273438 9.023438 -0.734375 8.296875 -0.359375 C 7.566406 0.00390625 6.6875 0.1875 5.65625 0.1875 Z M 5.65625 0.1875 "/></g></g></g><g fill="#000000" fill-opacity="1"><g transform="translate(268.424478, 164.283352)"><g/></g></g><g fill="#000000" fill-opacity="1"><g transform="translate(272.904519, 164.283352)"><g><path d="M 4.21875 0 L 1.765625 0 L 1.765625 -13.5625 L 5.265625 -13.5625 L 8.703125 -3.59375 L 8.890625 -3.59375 L 12.3125 -13.5625 L 15.734375 -13.5625 L 15.734375 0 L 13.1875 0 L 13.1875 -8.96875 L 12.953125 -9 L 9.828125 0 L 7.59375 0 L 4.453125 -9 L 4.21875 -8.96875 Z M 4.21875 0 "/></g></g></g><g fill="#000000" fill-opacity="1"><g transform="translate(290.407273, 164.283352)"><g><path d="M 2.75 -11.453125 C 2.289062 -11.453125 1.914062 -11.59375 1.625 -11.875 C 1.332031 -12.15625 1.1875 -12.519531 1.1875 -12.96875 C 1.1875 -13.40625 1.332031 -13.765625 1.625 -14.046875 C 1.914062 -14.328125 2.289062 -14.46875 2.75 -14.46875 C 3.0625 -14.46875 3.335938 -14.398438 3.578125 -14.265625 C 3.816406 -14.140625 4.003906 -13.960938 4.140625 -13.734375 C 4.273438 -13.515625 4.34375 -13.257812 4.34375 -12.96875 C 4.34375 -12.675781 4.273438 -12.414062 4.140625 -12.1875 C 4.003906 -11.957031 3.816406 -11.773438 3.578125 -11.640625 C 3.335938 -11.515625 3.0625 -11.453125 2.75 -11.453125 Z M 1.46875 0 L 1.46875 -10.234375 L 4.046875 -10.234375 L 4.046875 0 Z M 1.46875 0 "/></g></g></g><g fill="#000000" fill-opacity="1"><g transform="translate(295.916881, 164.283352)"><g><path d="M 1.46875 0 L 1.46875 -10.234375 L 3.9375 -10.234375 L 3.9375 -8.734375 L 4.140625 -8.6875 C 4.773438 -9.84375 5.804688 -10.421875 7.234375 -10.421875 C 8.421875 -10.421875 9.289062 -10.097656 9.84375 -9.453125 C 10.394531 -8.816406 10.671875 -7.882812 10.671875 -6.65625 L 10.671875 0 L 8.09375 0 L 8.09375 -6.34375 C 8.09375 -7.019531 7.957031 -7.503906 7.6875 -7.796875 C 7.414062 -8.097656 6.984375 -8.25 6.390625 -8.25 C 5.648438 -8.25 5.070312 -8.007812 4.65625 -7.53125 C 4.25 -7.0625 4.046875 -6.316406 4.046875 -5.296875 L 4.046875 0 Z M 1.46875 0 "/></g></g></g><g fill="#000000" fill-opacity="1"><g transform="translate(307.900745, 164.283352)"><g><path d="M 4.6875 0.1875 C 3.53125 0.1875 2.675781 -0.125 2.125 -0.75 C 1.582031 -1.375 1.3125 -2.273438 1.3125 -3.453125 L 1.3125 -10.234375 L 3.890625 -10.234375 L 3.890625 -3.78125 C 3.890625 -3.15625 4.019531 -2.695312 4.28125 -2.40625 C 4.550781 -2.113281 4.96875 -1.96875 5.53125 -1.96875 C 6.25 -1.96875 6.804688 -2.203125 7.203125 -2.671875 C 7.597656 -3.140625 7.796875 -3.875 7.796875 -4.875 L 7.796875 -10.234375 L 10.359375 -10.234375 L 10.359375 0 L 7.890625 0 L 7.890625 -1.5 L 7.703125 -1.546875 C 7.367188 -0.960938 6.96875 -0.523438 6.5 -0.234375 C 6.03125 0.046875 5.425781 0.1875 4.6875 0.1875 Z M 4.6875 0.1875 "/></g></g></g><g fill="#000000" fill-opacity="1"><g transform="translate(319.736201, 164.283352)"><g><path d="M 7.0625 -2.4375 L 7.734375 -0.53125 C 7.453125 -0.300781 7.097656 -0.125 6.671875 0 C 6.253906 0.125 5.78125 0.1875 5.25 0.1875 C 4.144531 0.1875 3.300781 -0.109375 2.71875 -0.703125 C 2.144531 -1.304688 1.859375 -2.1875 1.859375 -3.34375 L 1.859375 -8.203125 L 0.3125 -8.203125 L 0.3125 -10.25 L 1.859375 -10.25 L 1.859375 -12.234375 L 4.4375 -12.65625 L 4.4375 -10.25 L 7.34375 -10.25 L 7.34375 -8.203125 L 4.4375 -8.203125 L 4.4375 -3.53125 C 4.4375 -3.019531 4.539062 -2.644531 4.75 -2.40625 C 4.957031 -2.175781 5.265625 -2.0625 5.671875 -2.0625 C 6.128906 -2.0625 6.523438 -2.1875 6.859375 -2.4375 Z M 7.0625 -2.4375 "/></g></g></g><g fill="#000000" fill-opacity="1"><g transform="translate(327.685255, 164.283352)"><g><path d="M 10.109375 -4.53125 L 3.53125 -4.53125 C 3.601562 -3.644531 3.851562 -3 4.28125 -2.59375 C 4.71875 -2.1875 5.3125 -1.984375 6.0625 -1.984375 C 6.65625 -1.984375 7.132812 -2.09375 7.5 -2.3125 C 7.863281 -2.53125 8.15625 -2.863281 8.375 -3.3125 L 8.578125 -3.3125 L 10.28125 -2.21875 C 9.945312 -1.5 9.441406 -0.914062 8.765625 -0.46875 C 8.085938 -0.03125 7.1875 0.1875 6.0625 0.1875 C 5.007812 0.1875 4.097656 -0.0078125 3.328125 -0.40625 C 2.554688 -0.8125 1.960938 -1.410156 1.546875 -2.203125 C 1.128906 -2.992188 0.921875 -3.960938 0.921875 -5.109375 C 0.921875 -6.273438 1.140625 -7.253906 1.578125 -8.046875 C 2.015625 -8.847656 2.609375 -9.441406 3.359375 -9.828125 C 4.109375 -10.222656 4.945312 -10.421875 5.875 -10.421875 C 7.320312 -10.421875 8.429688 -10.035156 9.203125 -9.265625 C 9.972656 -8.503906 10.359375 -7.382812 10.359375 -5.90625 C 10.359375 -5.363281 10.34375 -4.941406 10.3125 -4.640625 Z M 7.90625 -6.203125 C 7.882812 -6.972656 7.703125 -7.535156 7.359375 -7.890625 C 7.023438 -8.253906 6.53125 -8.4375 5.875 -8.4375 C 4.582031 -8.4375 3.820312 -7.691406 3.59375 -6.203125 Z M 7.90625 -6.203125 "/></g></g></g><g fill="#000000" fill-opacity="1"><g transform="translate(338.806508, 164.283352)"><g><path d="M 4.78125 0.1875 C 4.082031 0.1875 3.441406 0.109375 2.859375 -0.046875 C 2.285156 -0.210938 1.789062 -0.4375 1.375 -0.71875 C 0.96875 -1.007812 0.664062 -1.34375 0.46875 -1.71875 L 1.890625 -3.25 L 2.09375 -3.25 C 2.425781 -2.789062 2.820312 -2.445312 3.28125 -2.21875 C 3.75 -2 4.257812 -1.890625 4.8125 -1.890625 C 5.3125 -1.890625 5.6875 -1.976562 5.9375 -2.15625 C 6.1875 -2.332031 6.3125 -2.585938 6.3125 -2.921875 C 6.3125 -3.179688 6.21875 -3.398438 6.03125 -3.578125 C 5.851562 -3.753906 5.5625 -3.890625 5.15625 -3.984375 L 3.796875 -4.3125 C 2.785156 -4.550781 2.046875 -4.921875 1.578125 -5.421875 C 1.109375 -5.921875 0.875 -6.550781 0.875 -7.3125 C 0.875 -7.957031 1.035156 -8.515625 1.359375 -8.984375 C 1.691406 -9.453125 2.148438 -9.804688 2.734375 -10.046875 C 3.328125 -10.296875 4.019531 -10.421875 4.8125 -10.421875 C 5.726562 -10.421875 6.488281 -10.285156 7.09375 -10.015625 C 7.695312 -9.753906 8.171875 -9.40625 8.515625 -8.96875 L 7.140625 -7.484375 L 6.953125 -7.484375 C 6.671875 -7.796875 6.351562 -8.023438 6 -8.171875 C 5.644531 -8.328125 5.25 -8.40625 4.8125 -8.40625 C 3.789062 -8.40625 3.28125 -8.085938 3.28125 -7.453125 C 3.28125 -7.191406 3.375 -6.976562 3.5625 -6.8125 C 3.75 -6.644531 4.082031 -6.507812 4.5625 -6.40625 L 5.828125 -6.125 C 6.867188 -5.90625 7.628906 -5.546875 8.109375 -5.046875 C 8.585938 -4.554688 8.828125 -3.898438 8.828125 -3.078125 C 8.828125 -2.421875 8.664062 -1.84375 8.34375 -1.34375 C 8.019531 -0.851562 7.554688 -0.472656 6.953125 -0.203125 C 6.347656 0.0546875 5.625 0.1875 4.78125 0.1875 Z M 4.78125 0.1875 "/></g></g></g><g clip-path="url(#3a67c7a8f1)"><path fill="#ffffff" d="M 85.535156 230.265625 L 230.265625 230.265625 L 230.265625 375 L 85.535156 375 Z M 85.535156 230.265625 " fill-opacity="1" fill-rule="nonzero"/></g><g clip-path="url(#ed9199f571)"><path stroke-linecap="butt" transform="matrix(0.75, 0, 0, 0.75, 85.533361, 230.26667)" fill="none" stroke-linejoin="miter" d="M 0.00239329 -0.00139291 L 192.971156 -0.00139291 L 192.971156 192.96737 L 0.00239329 192.96737 Z M 0.00239329 -0.00139291 " stroke="#000000" stroke-width="1" stroke-opacity="1" stroke-miterlimit="4"/></g><g fill="#000000" fill-opacity="1"><g transform="translate(107.259922, 309.016665)"><g><path d="M 0.71875 0 L 0.71875 -2.21875 L 3.984375 -2.21875 L 3.984375 -10.65625 L 3.78125 -10.71875 C 3.3125 -10.488281 2.851562 -10.304688 2.40625 -10.171875 C 1.957031 -10.046875 1.445312 -9.945312 0.875 -9.875 L 0.875 -12.171875 C 2.375 -12.484375 3.585938 -12.945312 4.515625 -13.5625 L 6.640625 -13.5625 L 6.640625 -2.21875 L 9.5625 -2.21875 L 9.5625 0 Z M 0.71875 0 "/></g></g></g><g fill="#000000" fill-opacity="1"><g transform="translate(117.268123, 309.016665)"><g><path d="M 5.65625 0.1875 C 4.300781 0.1875 3.222656 -0.09375 2.421875 -0.65625 C 1.628906 -1.226562 1.113281 -2.023438 0.875 -3.046875 L 2.90625 -3.9375 L 3.125 -3.90625 C 3.320312 -3.300781 3.613281 -2.847656 4 -2.546875 C 4.394531 -2.242188 4.9375 -2.09375 5.625 -2.09375 C 6.332031 -2.09375 6.875 -2.289062 7.25 -2.6875 C 7.632812 -3.09375 7.828125 -3.695312 7.828125 -4.5 C 7.828125 -5.289062 7.632812 -5.890625 7.25 -6.296875 C 6.875 -6.703125 6.359375 -6.90625 5.703125 -6.90625 C 5.203125 -6.90625 4.78125 -6.796875 4.4375 -6.578125 C 4.101562 -6.367188 3.820312 -6.050781 3.59375 -5.625 L 1.375 -5.78125 L 1.65625 -13.5625 L 9.71875 -13.5625 L 9.71875 -11.3125 L 3.90625 -11.3125 L 3.78125 -7.84375 L 3.96875 -7.8125 C 4.28125 -8.226562 4.65625 -8.539062 5.09375 -8.75 C 5.539062 -8.96875 6.070312 -9.078125 6.6875 -9.078125 C 7.457031 -9.078125 8.128906 -8.90625 8.703125 -8.5625 C 9.285156 -8.21875 9.734375 -7.707031 10.046875 -7.03125 C 10.367188 -6.351562 10.53125 -5.523438 10.53125 -4.546875 C 10.53125 -3.546875 10.335938 -2.691406 9.953125 -1.984375 C 9.578125 -1.273438 9.023438 -0.734375 8.296875 -0.359375 C 7.566406 0.00390625 6.6875 0.1875 5.65625 0.1875 Z M 5.65625 0.1875 "/></g></g></g><g fill="#000000" fill-opacity="1"><g transform="translate(128.69546, 309.016665)"><g/></g></g><g fill="#000000" fill-opacity="1"><g transform="translate(133.175501, 309.016665)"><g><path d="M 4.21875 0 L 1.765625 0 L 1.765625 -13.5625 L 5.265625 -13.5625 L 8.703125 -3.59375 L 8.890625 -3.59375 L 12.3125 -13.5625 L 15.734375 -13.5625 L 15.734375 0 L 13.1875 0 L 13.1875 -8.96875 L 12.953125 -9 L 9.828125 0 L 7.59375 0 L 4.453125 -9 L 4.21875 -8.96875 Z M 4.21875 0 "/></g></g></g><g fill="#000000" fill-opacity="1"><g transform="translate(150.678255, 309.016665)"><g><path d="M 2.75 -11.453125 C 2.289062 -11.453125 1.914062 -11.59375 1.625 -11.875 C 1.332031 -12.15625 1.1875 -12.519531 1.1875 -12.96875 C 1.1875 -13.40625 1.332031 -13.765625 1.625 -14.046875 C 1.914062 -14.328125 2.289062 -14.46875 2.75 -14.46875 C 3.0625 -14.46875 3.335938 -14.398438 3.578125 -14.265625 C 3.816406 -14.140625 4.003906 -13.960938 4.140625 -13.734375 C 4.273438 -13.515625 4.34375 -13.257812 4.34375 -12.96875 C 4.34375 -12.675781 4.273438 -12.414062 4.140625 -12.1875 C 4.003906 -11.957031 3.816406 -11.773438 3.578125 -11.640625 C 3.335938 -11.515625 3.0625 -11.453125 2.75 -11.453125 Z M 1.46875 0 L 1.46875 -10.234375 L 4.046875 -10.234375 L 4.046875 0 Z M 1.46875 0 "/></g></g></g><g fill="#000000" fill-opacity="1"><g transform="translate(156.187864, 309.016665)"><g><path d="M 1.46875 0 L 1.46875 -10.234375 L 3.9375 -10.234375 L 3.9375 -8.734375 L 4.140625 -8.6875 C 4.773438 -9.84375 5.804688 -10.421875 7.234375 -10.421875 C 8.421875 -10.421875 9.289062 -10.097656 9.84375 -9.453125 C 10.394531 -8.816406 10.671875 -7.882812 10.671875 -6.65625 L 10.671875 0 L 8.09375 0 L 8.09375 -6.34375 C 8.09375 -7.019531 7.957031 -7.503906 7.6875 -7.796875 C 7.414062 -8.097656 6.984375 -8.25 6.390625 -8.25 C 5.648438 -8.25 5.070312 -8.007812 4.65625 -7.53125 C 4.25 -7.0625 4.046875 -6.316406 4.046875 -5.296875 L 4.046875 0 Z M 1.46875 0 "/></g></g></g><g fill="#000000" fill-opacity="1"><g transform="translate(168.171727, 309.016665)"><g><path d="M 4.6875 0.1875 C 3.53125 0.1875 2.675781 -0.125 2.125 -0.75 C 1.582031 -1.375 1.3125 -2.273438 1.3125 -3.453125 L 1.3125 -10.234375 L 3.890625 -10.234375 L 3.890625 -3.78125 C 3.890625 -3.15625 4.019531 -2.695312 4.28125 -2.40625 C 4.550781 -2.113281 4.96875 -1.96875 5.53125 -1.96875 C 6.25 -1.96875 6.804688 -2.203125 7.203125 -2.671875 C 7.597656 -3.140625 7.796875 -3.875 7.796875 -4.875 L 7.796875 -10.234375 L 10.359375 -10.234375 L 10.359375 0 L 7.890625 0 L 7.890625 -1.5 L 7.703125 -1.546875 C 7.367188 -0.960938 6.96875 -0.523438 6.5 -0.234375 C 6.03125 0.046875 5.425781 0.1875 4.6875 0.1875 Z M 4.6875 0.1875 "/></g></g></g><g fill="#000000" fill-opacity="1"><g transform="translate(180.007183, 309.016665)"><g><path d="M 7.0625 -2.4375 L 7.734375 -0.53125 C 7.453125 -0.300781 7.097656 -0.125 6.671875 0 C 6.253906 0.125 5.78125 0.1875 5.25 0.1875 C 4.144531 0.1875 3.300781 -0.109375 2.71875 -0.703125 C 2.144531 -1.304688 1.859375 -2.1875 1.859375 -3.34375 L 1.859375 -8.203125 L 0.3125 -8.203125 L 0.3125 -10.25 L 1.859375 -10.25 L 1.859375 -12.234375 L 4.4375 -12.65625 L 4.4375 -10.25 L 7.34375 -10.25 L 7.34375 -8.203125 L 4.4375 -8.203125 L 4.4375 -3.53125 C 4.4375 -3.019531 4.539062 -2.644531 4.75 -2.40625 C 4.957031 -2.175781 5.265625 -2.0625 5.671875 -2.0625 C 6.128906 -2.0625 6.523438 -2.1875 6.859375 -2.4375 Z M 7.0625 -2.4375 "/></g></g></g><g fill="#000000" fill-opacity="1"><g transform="translate(187.956237, 309.016665)"><g><path d="M 10.109375 -4.53125 L 3.53125 -4.53125 C 3.601562 -3.644531 3.851562 -3 4.28125 -2.59375 C 4.71875 -2.1875 5.3125 -1.984375 6.0625 -1.984375 C 6.65625 -1.984375 7.132812 -2.09375 7.5 -2.3125 C 7.863281 -2.53125 8.15625 -2.863281 8.375 -3.3125 L 8.578125 -3.3125 L 10.28125 -2.21875 C 9.945312 -1.5 9.441406 -0.914062 8.765625 -0.46875 C 8.085938 -0.03125 7.1875 0.1875 6.0625 0.1875 C 5.007812 0.1875 4.097656 -0.0078125 3.328125 -0.40625 C 2.554688 -0.8125 1.960938 -1.410156 1.546875 -2.203125 C 1.128906 -2.992188 0.921875 -3.960938 0.921875 -5.109375 C 0.921875 -6.273438 1.140625 -7.253906 1.578125 -8.046875 C 2.015625 -8.847656 2.609375 -9.441406 3.359375 -9.828125 C 4.109375 -10.222656 4.945312 -10.421875 5.875 -10.421875 C 7.320312 -10.421875 8.429688 -10.035156 9.203125 -9.265625 C 9.972656 -8.503906 10.359375 -7.382812 10.359375 -5.90625 C 10.359375 -5.363281 10.34375 -4.941406 10.3125 -4.640625 Z M 7.90625 -6.203125 C 7.882812 -6.972656 7.703125 -7.535156 7.359375 -7.890625 C 7.023438 -8.253906 6.53125 -8.4375 5.875 -8.4375 C 4.582031 -8.4375 3.820312 -7.691406 3.59375 -6.203125 Z M 7.90625 -6.203125 "/></g></g></g><g fill="#000000" fill-opacity="1"><g transform="translate(199.07749, 309.016665)"><g><path d="M 4.78125 0.1875 C 4.082031 0.1875 3.441406 0.109375 2.859375 -0.046875 C 2.285156 -0.210938 1.789062 -0.4375 1.375 -0.71875 C 0.96875 -1.007812 0.664062 -1.34375 0.46875 -1.71875 L 1.890625 -3.25 L 2.09375 -3.25 C 2.425781 -2.789062 2.820312 -2.445312 3.28125 -2.21875 C 3.75 -2 4.257812 -1.890625 4.8125 -1.890625 C 5.3125 -1.890625 5.6875 -1.976562 5.9375 -2.15625 C 6.1875 -2.332031 6.3125 -2.585938 6.3125 -2.921875 C 6.3125 -3.179688 6.21875 -3.398438 6.03125 -3.578125 C 5.851562 -3.753906 5.5625 -3.890625 5.15625 -3.984375 L 3.796875 -4.3125 C 2.785156 -4.550781 2.046875 -4.921875 1.578125 -5.421875 C 1.109375 -5.921875 0.875 -6.550781 0.875 -7.3125 C 0.875 -7.957031 1.035156 -8.515625 1.359375 -8.984375 C 1.691406 -9.453125 2.148438 -9.804688 2.734375 -10.046875 C 3.328125 -10.296875 4.019531 -10.421875 4.8125 -10.421875 C 5.726562 -10.421875 6.488281 -10.285156 7.09375 -10.015625 C 7.695312 -9.753906 8.171875 -9.40625 8.515625 -8.96875 L 7.140625 -7.484375 L 6.953125 -7.484375 C 6.671875 -7.796875 6.351562 -8.023438 6 -8.171875 C 5.644531 -8.328125 5.25 -8.40625 4.8125 -8.40625 C 3.789062 -8.40625 3.28125 -8.085938 3.28125 -7.453125 C 3.28125 -7.191406 3.375 -6.976562 3.5625 -6.8125 C 3.75 -6.644531 4.082031 -6.507812 4.5625 -6.40625 L 5.828125 -6.125 C 6.867188 -5.90625 7.628906 -5.546875 8.109375 -5.046875 C 8.585938 -4.554688 8.828125 -3.898438 8.828125 -3.078125 C 8.828125 -2.421875 8.664062 -1.84375 8.34375 -1.34375 C 8.019531 -0.851562 7.554688 -0.472656 6.953125 -0.203125 C 6.347656 0.0546875 5.625 0.1875 4.78125 0.1875 Z M 4.78125 0.1875 "/></g></g></g><g clip-path="url(#53a5d681b1)"><path fill="#ffffff" d="M 230.265625 230.265625 L 375 230.265625 L 375 375 L 230.265625 375 Z M 230.265625 230.265625 " fill-opacity="1" fill-rule="nonzero"/></g><g clip-path="url(#2d01162df0)"><path stroke-linecap="butt" transform="matrix(0.75, 0, 0, 0.75, 230.266674, 230.26667)" fill="none" stroke-linejoin="miter" d="M -0.00139891 -0.00139291 L 192.967364 -0.00139291 L 192.967364 192.96737 L -0.00139891 192.96737 Z M -0.00139891 -0.00139291 " stroke="#000000" stroke-width="1" stroke-opacity="1" stroke-miterlimit="4"/></g><g fill="#000000" fill-opacity="1"><g transform="translate(251.711985, 309.016665)"><g><path d="M 0.65625 -1.078125 C 0.65625 -1.828125 0.738281 -2.457031 0.90625 -2.96875 C 1.070312 -3.476562 1.335938 -3.945312 1.703125 -4.375 C 2.078125 -4.800781 2.601562 -5.257812 3.28125 -5.75 L 5.09375 -7.046875 C 5.582031 -7.398438 5.960938 -7.707031 6.234375 -7.96875 C 6.515625 -8.226562 6.722656 -8.5 6.859375 -8.78125 C 7.003906 -9.070312 7.078125 -9.398438 7.078125 -9.765625 C 7.078125 -10.304688 6.910156 -10.726562 6.578125 -11.03125 C 6.242188 -11.332031 5.742188 -11.484375 5.078125 -11.484375 C 4.429688 -11.484375 3.859375 -11.328125 3.359375 -11.015625 C 2.859375 -10.710938 2.441406 -10.296875 2.109375 -9.765625 L 1.9375 -9.71875 L 0.46875 -11.375 C 0.945312 -12.09375 1.570312 -12.671875 2.34375 -13.109375 C 3.125 -13.546875 4.066406 -13.765625 5.171875 -13.765625 C 6.191406 -13.765625 7.039062 -13.59375 7.71875 -13.25 C 8.40625 -12.914062 8.910156 -12.457031 9.234375 -11.875 C 9.566406 -11.300781 9.734375 -10.644531 9.734375 -9.90625 C 9.734375 -9.257812 9.597656 -8.671875 9.328125 -8.140625 C 9.066406 -7.609375 8.695312 -7.113281 8.21875 -6.65625 C 7.738281 -6.207031 7.128906 -5.722656 6.390625 -5.203125 L 4.78125 -4.078125 C 4.300781 -3.734375 3.960938 -3.425781 3.765625 -3.15625 C 3.578125 -2.882812 3.484375 -2.582031 3.484375 -2.25 L 9.609375 -2.25 L 9.609375 0 L 0.65625 0 Z M 0.65625 -1.078125 "/></g></g></g><g fill="#000000" fill-opacity="1"><g transform="translate(262.295263, 309.016665)"><g><path d="M 5.65625 0.1875 C 4.300781 0.1875 3.222656 -0.09375 2.421875 -0.65625 C 1.628906 -1.226562 1.113281 -2.023438 0.875 -3.046875 L 2.90625 -3.9375 L 3.125 -3.90625 C 3.320312 -3.300781 3.613281 -2.847656 4 -2.546875 C 4.394531 -2.242188 4.9375 -2.09375 5.625 -2.09375 C 6.332031 -2.09375 6.875 -2.289062 7.25 -2.6875 C 7.632812 -3.09375 7.828125 -3.695312 7.828125 -4.5 C 7.828125 -5.289062 7.632812 -5.890625 7.25 -6.296875 C 6.875 -6.703125 6.359375 -6.90625 5.703125 -6.90625 C 5.203125 -6.90625 4.78125 -6.796875 4.4375 -6.578125 C 4.101562 -6.367188 3.820312 -6.050781 3.59375 -5.625 L 1.375 -5.78125 L 1.65625 -13.5625 L 9.71875 -13.5625 L 9.71875 -11.3125 L 3.90625 -11.3125 L 3.78125 -7.84375 L 3.96875 -7.8125 C 4.28125 -8.226562 4.65625 -8.539062 5.09375 -8.75 C 5.539062 -8.96875 6.070312 -9.078125 6.6875 -9.078125 C 7.457031 -9.078125 8.128906 -8.90625 8.703125 -8.5625 C 9.285156 -8.21875 9.734375 -7.707031 10.046875 -7.03125 C 10.367188 -6.351562 10.53125 -5.523438 10.53125 -4.546875 C 10.53125 -3.546875 10.335938 -2.691406 9.953125 -1.984375 C 9.578125 -1.273438 9.023438 -0.734375 8.296875 -0.359375 C 7.566406 0.00390625 6.6875 0.1875 5.65625 0.1875 Z M 5.65625 0.1875 "/></g></g></g><g fill="#000000" fill-opacity="1"><g transform="translate(273.7226, 309.016665)"><g/></g></g><g fill="#000000" fill-opacity="1"><g transform="translate(278.202641, 309.016665)"><g><path d="M 4.21875 0 L 1.765625 0 L 1.765625 -13.5625 L 5.265625 -13.5625 L 8.703125 -3.59375 L 8.890625 -3.59375 L 12.3125 -13.5625 L 15.734375 -13.5625 L 15.734375 0 L 13.1875 0 L 13.1875 -8.96875 L 12.953125 -9 L 9.828125 0 L 7.59375 0 L 4.453125 -9 L 4.21875 -8.96875 Z M 4.21875 0 "/></g></g></g><g fill="#000000" fill-opacity="1"><g transform="translate(295.705395, 309.016665)"><g><path d="M 2.75 -11.453125 C 2.289062 -11.453125 1.914062 -11.59375 1.625 -11.875 C 1.332031 -12.15625 1.1875 -12.519531 1.1875 -12.96875 C 1.1875 -13.40625 1.332031 -13.765625 1.625 -14.046875 C 1.914062 -14.328125 2.289062 -14.46875 2.75 -14.46875 C 3.0625 -14.46875 3.335938 -14.398438 3.578125 -14.265625 C 3.816406 -14.140625 4.003906 -13.960938 4.140625 -13.734375 C 4.273438 -13.515625 4.34375 -13.257812 4.34375 -12.96875 C 4.34375 -12.675781 4.273438 -12.414062 4.140625 -12.1875 C 4.003906 -11.957031 3.816406 -11.773438 3.578125 -11.640625 C 3.335938 -11.515625 3.0625 -11.453125 2.75 -11.453125 Z M 1.46875 0 L 1.46875 -10.234375 L 4.046875 -10.234375 L 4.046875 0 Z M 1.46875 0 "/></g></g></g><g fill="#000000" fill-opacity="1"><g transform="translate(301.215004, 309.016665)"><g><path d="M 1.46875 0 L 1.46875 -10.234375 L 3.9375 -10.234375 L 3.9375 -8.734375 L 4.140625 -8.6875 C 4.773438 -9.84375 5.804688 -10.421875 7.234375 -10.421875 C 8.421875 -10.421875 9.289062 -10.097656 9.84375 -9.453125 C 10.394531 -8.816406 10.671875 -7.882812 10.671875 -6.65625 L 10.671875 0 L 8.09375 0 L 8.09375 -6.34375 C 8.09375 -7.019531 7.957031 -7.503906 7.6875 -7.796875 C 7.414062 -8.097656 6.984375 -8.25 6.390625 -8.25 C 5.648438 -8.25 5.070312 -8.007812 4.65625 -7.53125 C 4.25 -7.0625 4.046875 -6.316406 4.046875 -5.296875 L 4.046875 0 Z M 1.46875 0 "/></g></g></g><g fill="#000000" fill-opacity="1"><g transform="translate(313.198867, 309.016665)"><g><path d="M 4.6875 0.1875 C 3.53125 0.1875 2.675781 -0.125 2.125 -0.75 C 1.582031 -1.375 1.3125 -2.273438 1.3125 -3.453125 L 1.3125 -10.234375 L 3.890625 -10.234375 L 3.890625 -3.78125 C 3.890625 -3.15625 4.019531 -2.695312 4.28125 -2.40625 C 4.550781 -2.113281 4.96875 -1.96875 5.53125 -1.96875 C 6.25 -1.96875 6.804688 -2.203125 7.203125 -2.671875 C 7.597656 -3.140625 7.796875 -3.875 7.796875 -4.875 L 7.796875 -10.234375 L 10.359375 -10.234375 L 10.359375 0 L 7.890625 0 L 7.890625 -1.5 L 7.703125 -1.546875 C 7.367188 -0.960938 6.96875 -0.523438 6.5 -0.234375 C 6.03125 0.046875 5.425781 0.1875 4.6875 0.1875 Z M 4.6875 0.1875 "/></g></g></g><g fill="#000000" fill-opacity="1"><g transform="translate(325.034323, 309.016665)"><g><path d="M 7.0625 -2.4375 L 7.734375 -0.53125 C 7.453125 -0.300781 7.097656 -0.125 6.671875 0 C 6.253906 0.125 5.78125 0.1875 5.25 0.1875 C 4.144531 0.1875 3.300781 -0.109375 2.71875 -0.703125 C 2.144531 -1.304688 1.859375 -2.1875 1.859375 -3.34375 L 1.859375 -8.203125 L 0.3125 -8.203125 L 0.3125 -10.25 L 1.859375 -10.25 L 1.859375 -12.234375 L 4.4375 -12.65625 L 4.4375 -10.25 L 7.34375 -10.25 L 7.34375 -8.203125 L 4.4375 -8.203125 L 4.4375 -3.53125 C 4.4375 -3.019531 4.539062 -2.644531 4.75 -2.40625 C 4.957031 -2.175781 5.265625 -2.0625 5.671875 -2.0625 C 6.128906 -2.0625 6.523438 -2.1875 6.859375 -2.4375 Z M 7.0625 -2.4375 "/></g></g></g><g fill="#000000" fill-opacity="1"><g transform="translate(332.983377, 309.016665)"><g><path d="M 10.109375 -4.53125 L 3.53125 -4.53125 C 3.601562 -3.644531 3.851562 -3 4.28125 -2.59375 C 4.71875 -2.1875 5.3125 -1.984375 6.0625 -1.984375 C 6.65625 -1.984375 7.132812 -2.09375 7.5 -2.3125 C 7.863281 -2.53125 8.15625 -2.863281 8.375 -3.3125 L 8.578125 -3.3125 L 10.28125 -2.21875 C 9.945312 -1.5 9.441406 -0.914062 8.765625 -0.46875 C 8.085938 -0.03125 7.1875 0.1875 6.0625 0.1875 C 5.007812 0.1875 4.097656 -0.0078125 3.328125 -0.40625 C 2.554688 -0.8125 1.960938 -1.410156 1.546875 -2.203125 C 1.128906 -2.992188 0.921875 -3.960938 0.921875 -5.109375 C 0.921875 -6.273438 1.140625 -7.253906 1.578125 -8.046875 C 2.015625 -8.847656 2.609375 -9.441406 3.359375 -9.828125 C 4.109375 -10.222656 4.945312 -10.421875 5.875 -10.421875 C 7.320312 -10.421875 8.429688 -10.035156 9.203125 -9.265625 C 9.972656 -8.503906 10.359375 -7.382812 10.359375 -5.90625 C 10.359375 -5.363281 10.34375 -4.941406 10.3125 -4.640625 Z M 7.90625 -6.203125 C 7.882812 -6.972656 7.703125 -7.535156 7.359375 -7.890625 C 7.023438 -8.253906 6.53125 -8.4375 5.875 -8.4375 C 4.582031 -8.4375 3.820312 -7.691406 3.59375 -6.203125 Z M 7.90625 -6.203125 "/></g></g></g><g fill="#000000" fill-opacity="1"><g transform="translate(344.10463, 309.016665)"><g><path d="M 4.78125 0.1875 C 4.082031 0.1875 3.441406 0.109375 2.859375 -0.046875 C 2.285156 -0.210938 1.789062 -0.4375 1.375 -0.71875 C 0.96875 -1.007812 0.664062 -1.34375 0.46875 -1.71875 L 1.890625 -3.25 L 2.09375 -3.25 C 2.425781 -2.789062 2.820312 -2.445312 3.28125 -2.21875 C 3.75 -2 4.257812 -1.890625 4.8125 -1.890625 C 5.3125 -1.890625 5.6875 -1.976562 5.9375 -2.15625 C 6.1875 -2.332031 6.3125 -2.585938 6.3125 -2.921875 C 6.3125 -3.179688 6.21875 -3.398438 6.03125 -3.578125 C 5.851562 -3.753906 5.5625 -3.890625 5.15625 -3.984375 L 3.796875 -4.3125 C 2.785156 -4.550781 2.046875 -4.921875 1.578125 -5.421875 C 1.109375 -5.921875 0.875 -6.550781 0.875 -7.3125 C 0.875 -7.957031 1.035156 -8.515625 1.359375 -8.984375 C 1.691406 -9.453125 2.148438 -9.804688 2.734375 -10.046875 C 3.328125 -10.296875 4.019531 -10.421875 4.8125 -10.421875 C 5.726562 -10.421875 6.488281 -10.285156 7.09375 -10.015625 C 7.695312 -9.753906 8.171875 -9.40625 8.515625 -8.96875 L 7.140625 -7.484375 L 6.953125 -7.484375 C 6.671875 -7.796875 6.351562 -8.023438 6 -8.171875 C 5.644531 -8.328125 5.25 -8.40625 4.8125 -8.40625 C 3.789062 -8.40625 3.28125 -8.085938 3.28125 -7.453125 C 3.28125 -7.191406 3.375 -6.976562 3.5625 -6.8125 C 3.75 -6.644531 4.082031 -6.507812 4.5625 -6.40625 L 5.828125 -6.125 C 6.867188 -5.90625 7.628906 -5.546875 8.109375 -5.046875 C 8.585938 -4.554688 8.828125 -3.898438 8.828125 -3.078125 C 8.828125 -2.421875 8.664062 -1.84375 8.34375 -1.34375 C 8.019531 -0.851562 7.554688 -0.472656 6.953125 -0.203125 C 6.347656 0.0546875 5.625 0.1875 4.78125 0.1875 Z M 4.78125 0.1875 "/></g></g></g></svg>